<?xml version="1.0" encoding="utf-8"?>
<!-- Generator: Adobe Illustrator 23.0.5, SVG Export Plug-In . SVG Version: 6.00 Build 0)  -->
<svg version="1.1" id="fc836297-f37e-43a2-86b4-5406f4a63596"
	 xmlns="http://www.w3.org/2000/svg" xmlns:xlink="http://www.w3.org/1999/xlink" x="0px" y="0px" viewBox="0 0 1130.1 738.1"
	 style="enable-background:new 0 0 1130.1 738.1;" xml:space="preserve">
<style type="text/css">
	.st0{opacity:0.1;fill:#6C63FF;enable-background:new    ;}
	.st1{fill:#6AACB7;}
	.st2{fill:#6099BF;}
	.st3{fill:#4A85A5;}
	.st4{fill:#EA6E6E;}
	.st5{fill:#CE5151;}
	.st6{fill:#CAD9DD;}
	.st7{fill:#ADC3C9;}
	.st8{fill:#2B2326;}
	.st9{fill:#3F3538;}
	.st10{fill:#493E41;}
	.st11{fill:#3A3033;}
	.st12{fill:#E7F7F7;}
	.st13{fill:#A7D7EA;}
	.st14{fill:#74B3C1;}
	.st15{fill:#E4EDEF;}
	.st16{fill:#60575A;}
	.st17{fill:#4F4649;}
	.st18{fill:#7C6D73;}
	.st19{fill:#4C4245;}
	.st20{fill:#6E797A;}
	.st21{fill:#CADADB;}
	.st22{fill:#9CBBBC;}
	.st23{fill:#FFB14A;}
	.st24{fill:#FFCA5F;}
	.st25{fill:#EF7A3F;}
	.st26{fill:#86C0D1;}
	.st27{fill:#594D51;}
	.st28{fill:#493E42;}
	.st29{fill:#3A3034;}
	.st30{fill:#3A2E34;}
	.st31{fill:#A5939D;}
	.st32{fill:#564B4F;}
	.st33{fill:#A3C3C4;}
	.st34{fill:#475556;}
	.st35{opacity:0.6;fill:#CCE9F2;}
	.st36{fill:#4F9299;}
	.st37{fill:#352A2E;}
	.st38{fill:#B2C8CE;}
	.st39{fill:#A3BBC1;}
	.st40{fill:#768C8C;}
	.st41{fill:#FFC0C0;}
	.st42{fill:#89C5E5;}
	.st43{fill:#B53333;}
	.st44{fill:#B29DA3;}
	.st45{fill:#542721;}
	.st46{fill:#441C19;}
	.st47{fill:#8E5144;}
	.st48{fill:#68322B;}
	.st49{fill:#773C32;}
	.st50{fill:#CDE2E8;}
	.st51{fill:#B0CFD6;}
	.st52{fill:#99C4CE;}
	.st53{fill:#81AEB5;}
	.st54{fill:#3A3F47;}
	.st55{fill:#4D525E;}
	.st56{fill:#454B56;}
	.st57{fill:#3B404C;}
	.st58{fill:#9EBEC6;}
	.st59{fill:#FFDBB0;}
	.st60{fill:#EBFDFF;}
	.st61{fill:#B6D4D8;}
	.st62{fill:#969DAA;}
	.st63{fill:#8F98AA;}
	.st64{fill:#C0CAD8;}
	.st65{fill:#FFBA5F;}
	.st66{opacity:0.6;fill:#964B41;}
	.st67{fill:#404651;}
	.st68{fill:#31373F;}
	.st69{fill:#414651;}
	.st70{fill:#352E2E;}
	.st71{fill:#9DA8B2;}
	.st72{fill:#826E6E;}
	.st73{fill:#AEB8C4;}
	.st74{fill:#747E8C;}
	.st75{fill:#352C27;}
	.st76{fill:#443A34;}
	.st77{fill:#51463F;}
	.st78{opacity:0.2;fill:#F7E0DA;}
	.st79{opacity:0.8;fill:#F7E0DA;}
	.st80{fill:#72372E;}
	.st81{fill:#292C30;}
	.st82{fill:#33373F;}
	.st83{fill:#31353F;}
	.st84{fill:#272B33;}
	.st85{fill:#301C19;}
	.st86{fill:#FFFAEE;}
	.st87{fill:#C0D4D8;}
	.st88{fill:#3B3E44;}
	.st89{fill:#EF8F6F;}
	.st90{fill:#FFDEB3;}
	.st91{fill:#FF8B4A;}
	.st92{fill:#4C5D6B;}
	.st93{fill:#EBFBFF;}
	.st94{fill:#CEE4EA;}
	.st95{fill:#F9AD8F;}
	.st96{fill:#602E2C;}
	.st97{fill:#5E7184;}
	.st98{fill:#25282D;}
	.st99{fill:#1C1F23;}
	.st100{fill:#3A404C;}
	.st101{fill:#9BBFC4;}
	.st102{fill:#303338;}
	.st103{fill:#474B51;}
	.st104{fill:#77899E;}
	.st105{fill:#B5BBC6;}
	.st106{fill:#E5DCD1;}
	.st107{fill:#FFAB5F;}
	.st108{fill:#6D5053;}
	.st109{fill:#593D41;}
	.st110{fill:#60464A;}
	.st111{fill:#FFCB9C;}
	.st112{fill:#FFBD66;}
	.st113{fill:#FFA452;}
	.st114{fill:#FFE2C0;}
	.st115{opacity:0.5;fill:#BC5642;}
	.st116{fill:#4C3434;}
	.st117{fill:#7A433F;}
	.st118{fill:#A5ACB7;}
	.st119{fill:#FFE888;}
	.st120{fill:#FFD278;}
	.st121{fill:#373E47;}
	.st122{fill:#B0BDC6;}
	.st123{fill:#6D4A41;}
	.st124{fill:#593832;}
	.st125{fill:#4F322C;}
	.st126{fill:#EDA57C;}
	.st127{fill:#FFFAE6;}
	.st128{fill:#E88B6B;}
</style>
<title>pair programming</title>
<path class="st0" d="M580.6,269.1c-57.1,9.6-114.1,5.5-169-0.5c-54.8-6-109.6-13.9-166.7-11.5c-36.7,1.5-77.7,8.8-103.3,30
	c-24.7,20.4-28.5,47.8-28.6,72.6c-0.1,18.6,1.6,37.9,14.8,52.8c9.2,10.3,23.3,17.7,34,27.2c37,33,25.8,85.1,1.5,129.3
	c-11.4,20.8-25.4,41.2-33.1,62.4s-8.8,44,5.1,61.3c13.8,17.2,40.4,26.9,68.2,31.9c56.4,10.2,119.3,3.9,180.1-4.7
	c134.6-19,267.9-48.7,400.8-78.4c49.2-11,98.6-22,146-37.8c26.3-8.8,53.1-19.8,70.1-36.8c21.6-21.6,22.1-51.1,1.3-68.8
	c-34.9-29.6-114-23-141-56.9c-14.9-18.6-8.4-43.9,3.4-66.3c25.4-47.9,74.4-95.3,68-143.1c-4.4-32.8-37.8-59.9-82.7-67
	c-47-7.4-107.3,6.6-134.4,39.6C687.4,238.4,631,260.5,580.6,269.1z"/>
<g>
	<polygon class="st1" points="707,310.6 694.7,306.6 691.1,313.1 	"/>
	<polygon class="st2" points="608.3,357.4 625.8,327 690.5,311 697.2,333.3 	"/>
	<polygon class="st3" points="680,313.3 670.4,331.8 617.1,342.5 614.2,347.5 676.6,341.8 684.3,312.1 	"/>
	<polygon class="st4" points="680.4,357.2 785.9,356.9 783.9,301.9 766.2,291.9 691.4,310.6 	"/>
	<polygon class="st5" points="699.7,328.2 698.7,309 695.7,309.4 695.1,329.6 	"/>
	<polygon class="st5" points="783.9,301.9 766.2,291.9 759.8,316.3 685.3,328.9 677.7,345.8 785.9,356.9 	"/>
	<polygon class="st6" points="608.6,354.2 614,344.8 671.8,334.3 683,309.5 694.7,306.6 694.1,317.8 692.2,331.1 757.4,321.5 
		788,334.2 792.1,351 	"/>
	<polygon class="st7" points="750.1,351.7 792.1,351 788,334.2 757.5,321.5 	"/>
	<polygon class="st8" points="1050.7,608.2 212.8,608.2 212.8,644.1 1043.2,638.1 	"/>
	<path class="st8" d="M288.6,636.1c0-24.1-14.8-43.6-33.1-43.6c-18.3,0-33.1,19.5-33.1,43.6s14.8,43.6,33.1,43.6
		C273.8,679.8,288.6,660.2,288.6,636.1z"/>
	<path class="st8" d="M809.6,636.1c0-24.1-14.8-43.6-33.1-43.6c-18.3,0-33.1,19.5-33.1,43.6s14.8,43.6,33.1,43.6
		C794.8,679.8,809.6,660.2,809.6,636.1z"/>
	<polygon class="st9" points="1058.6,631.3 1082.5,537.2 951.2,462.2 916.1,631.3 	"/>
	<polygon class="st10" points="951.2,462.2 950,468 1076.9,540.4 1055.6,631.3 1058.6,631.3 1084.6,535 	"/>
	<polygon class="st11" points="921.9,603.1 916.1,631.3 1058.6,631.3 1062.4,616.5 	"/>
	<polygon class="st12" points="925.6,373 710.3,329.9 515.1,365.9 403.8,512.2 604.7,631.3 929.8,631.3 974.8,476.6 	"/>
	<polygon class="st13" points="616,479.3 695.3,336.9 520.6,368.8 432.1,484.9 	"/>
	<polygon class="st14" points="519.5,372.2 666.7,388.2 695.4,336.4 	"/>
	<polygon class="st6" points="925.6,373 710.3,329.9 626.8,483.2 604.7,631.3 929.8,631.3 974.8,476.6 	"/>
	<polygon class="st15" points="925.6,373 710.3,329.9 670.1,403.6 954.6,546.1 974.8,476.6 	"/>
	<polygon class="st16" points="417.4,490.6 116.9,545 348.1,543.3 626.8,483.2 	"/>
	<polygon class="st17" points="494.9,488.1 226.8,544.2 348.1,543.3 626.8,483.2 	"/>
	<polygon class="st18" points="417,492.7 611.6,486.4 626.8,483.2 417.2,489.3 116.9,545 133.8,544.9 	"/>
	<polygon class="st19" points="374.4,631.3 138.7,631.3 116.9,545 351.5,532.1 	"/>
	<polygon class="st9" points="367.5,631.3 350.5,532.2 626.8,483.2 680.4,631.3 	"/>
	<polygon class="st11" points="350.9,534.2 367.5,631.3 680.4,631.3 662.5,581.7 	"/>
	<polygon class="st20" points="291.3,553.8 232.4,550.6 180.3,553.8 190.3,601.5 301.4,601.5 	"/>
	<polygon class="st21" points="353.5,580.6 348.4,550.4 305.9,550.4 308.9,568.4 322,568.4 324,580.6 	"/>
	<polygon class="st21" points="320.8,571 309.7,571 311.3,580.6 322.4,580.6 	"/>
	<polygon class="st21" points="130,584.1 122.5,554.7 164.4,554.7 168.9,572.2 156,572.2 159.1,584.1 	"/>
	<polygon class="st21" points="158.8,574.7 169.7,574.7 172.1,584.1 161.2,584.1 	"/>
	<polygon class="st22" points="160.1,576.1 170,576.1 169.6,574.2 158.1,574.2 160.7,584.1 162.1,584.1 	"/>
	<polygon class="st23" points="388.5,547.6 360.7,550.4 362.8,562.1 390.6,562.1 	"/>
	<polygon class="st24" points="385.1,550.5 366.5,552.1 367.9,559.8 386.3,559.8 	"/>
	<polygon class="st25" points="379.7,564.9 363.8,564.9 364.6,571.6 380.4,571.6 	"/>
	<polygon class="st26" points="638.3,476.7 966,476.7 922.7,377.6 714.8,337.6 	"/>
	<polygon class="st1" points="685.4,390.7 656.6,476.7 666.9,476.7 703.5,367.2 	"/>
	<path class="st1" d="M922.7,377.6l-207.9-40.1l-28.9,52.6l124.6,10.2l36.1,76.4H966L922.7,377.6z M814.7,399.6l102.7-19.3l43.8,96
		H853.8L814.7,399.6z"/>
	<rect x="522.1" y="627.4" class="st11" width="445.6" height="5.4"/>
	<path class="st8" d="M506.1,580.1c-22.4,0-40.7,24.9-42.6,56.6h85.1C546.8,605,528.5,580.1,506.1,580.1z"/>
	<path class="st8" d="M987.3,580.1c-22.4,0-40.7,24.9-42.6,56.6h85.1C1028,605,1009.7,580.1,987.3,580.1z"/>
	<path class="st27" d="M539.2,636.1c0-24.1-14.8-43.6-33.1-43.6c-18.3,0-33.1,19.5-33.1,43.6s14.8,43.6,33.1,43.6
		C524.4,679.8,539.2,660.2,539.2,636.1z"/>
	<path class="st28" d="M512.6,649.3c-17.2,0-31.3-17.3-32.9-39.4c-4.2,7.3-6.7,16.3-6.7,26.2c0,24.1,14.8,43.6,33.1,43.6
		c18.3,0,33.1-19.5,33.1-43.6c0-1.4-0.1-2.9-0.2-4.3C533,642.4,523.4,649.3,512.6,649.3z"/>
	<path class="st29" d="M483.2,636.1c0-21.6,11.9-39.5,27.6-43c-1.8-0.4-3.6-0.6-5.5-0.6c-18.3,0-33.1,19.5-33.1,43.6
		s14.8,43.6,33.1,43.6c1.9,0,3.7-0.3,5.5-0.6C495.1,675.7,483.2,657.8,483.2,636.1z"/>
	<path class="st30" d="M525.5,636.1c0-11.9-7.3-21.5-16.3-21.5c-9,0-16.3,9.6-16.3,21.5c0,11.9,7.3,21.5,16.3,21.5
		C518.2,657.6,525.5,648,525.5,636.1z"/>
	<path class="st31" d="M518.4,636.7c0-7.1-4.4-12.9-9.8-12.9c-5.4,0-9.8,5.8-9.8,12.9c0,7.1,4.4,12.9,9.8,12.9
		C514,649.5,518.4,643.8,518.4,636.7z"/>
	<path class="st27" d="M1021.1,636.1c0-24.1-14.8-43.6-33.1-43.6c-18.3,0-33.1,19.5-33.1,43.6s14.8,43.6,33.1,43.6
		C1006.3,679.8,1021.1,660.2,1021.1,636.1z"/>
	<path class="st28" d="M994.6,649.3c-17.2,0-31.3-17.3-32.9-39.4c-4.2,7.3-6.7,16.3-6.7,26.2c0,24.1,14.8,43.6,33.1,43.6
		c18.3,0,33.1-19.5,33.1-43.6c0-1.4-0.1-2.9-0.2-4.3C1014.9,642.4,1005.4,649.3,994.6,649.3z"/>
	<path class="st29" d="M965.2,636.1c0-21.6,11.9-39.5,27.6-43c-1.8-0.4-3.6-0.6-5.5-0.6c-18.3,0-33.1,19.5-33.1,43.6
		s14.8,43.6,33.1,43.6c1.9,0,3.7-0.3,5.5-0.6C977.1,675.7,965.2,657.8,965.2,636.1z"/>
	<ellipse class="st30" cx="991.2" cy="636.1" rx="16.3" ry="21.5"/>
	<path class="st31" d="M1000.4,636.7c0-7.1-4.4-12.9-9.8-12.9c-5.4,0-9.8,5.8-9.8,12.9c0,7.1,4.4,12.9,9.8,12.9
		C996,649.5,1000.4,643.8,1000.4,636.7z"/>
	<path class="st32" d="M506.9,580.2c-0.7-0.1-1.5-0.1-2.2-0.1c-22.4,0-40.7,24.9-42.6,56.6h4.4C468.4,606.1,485.6,581.8,506.9,580.2
		z"/>
	<path class="st32" d="M987.6,580.2c-0.7-0.1-1.5-0.1-2.2-0.1c-22.4,0-40.7,24.9-42.6,56.6h4.4C949,606.1,966.2,581.8,987.6,580.2z"
		/>
	<g>
		<polygon class="st33" points="323.7,569.5 322.2,569.5 324,580.6 325.6,580.6 		"/>
		<polygon class="st33" points="307.6,551.4 348.6,551.4 348.4,550.4 305.9,550.4 308.9,568.4 310.4,568.4 		"/>
	</g>
	<polygon class="st34" points="287.7,557.2 232,555.1 186.6,557.2 195.7,598.6 296.8,598.6 	"/>
	<g>
		<rect x="185.2" y="560.4" class="st20" width="104" height="2.6"/>
		<rect x="187.8" y="568.5" class="st20" width="104" height="2.6"/>
		<polygon class="st20" points="294.3,576.7 190.3,576.7 190,579.3 294,579.3 		"/>
		<polygon class="st20" points="295.8,584.8 191.9,584.8 191.5,587.5 295.5,587.5 		"/>
		<polygon class="st20" points="297.4,593 193.4,593 193.1,595.6 297.1,595.6 		"/>
	</g>
	<polygon class="st22" points="124.6,556 164.8,556 164.4,554.7 122.5,554.7 130,584.1 131.7,584.1 	"/>
	<polygon class="st14" points="521.7,372.1 693.1,340.5 695.4,336.4 519.2,368.8 430.7,484.9 435.8,484.7 	"/>
	<polygon class="st14" points="518.4,371.2 489.3,483.2 496.1,483.2 526.2,370.6 	"/>
	<polygon class="st14" points="616,479.3 430.7,484.9 437.3,479.2 521.2,472.3 583.5,460.5 623.8,465.2 	"/>
	<polygon class="st1" points="696.2,308.7 694.9,330.7 692.2,331.1 694.8,307 	"/>
	<polygon class="st35" points="611.3,478.1 606.7,354.5 547.8,364.3 510.8,481.3 	"/>
	<polygon class="st36" points="831.8,360.4 824.1,358.8 826.2,472.7 640,473.8 638.3,476.7 833.8,478.6 	"/>
	<polygon class="st36" points="922.5,377.8 919.1,377 962.2,474.1 734.6,474.6 732.8,477.1 966.3,477 	"/>
	<polygon class="st15" points="827.8,356.6 829.2,479.8 841.6,488.3 840.8,358.2 	"/>
	<polygon class="st6" points="710.3,337 691.4,483.2 698.2,483.2 721,336.2 	"/>
	<polygon class="st15" points="707.2,425.1 721,336.2 710.3,337 699.9,417.5 	"/>
	<g>
		<polygon class="st36" points="834.4,624.5 832.7,357.3 834.7,357.3 836.4,624.5 		"/>
	</g>
	<g>
		<polygon class="st36" points="925.7,625.6 681.9,625.6 634.7,487.8 638.9,475.9 640.9,476.4 636.8,487.7 683.3,623.4 924.2,623.4 
			964.3,475.1 966.3,477.3 		"/>
	</g>
	<polygon class="st37" points="357.2,537.1 629.6,490.8 626.8,483.2 350.5,532.2 367.5,631.3 369.2,631.3 	"/>
	<path class="st6" d="M376,609.4H132.2c-3,0-5.8,1.5-7.6,4c-1.8,2.5-2.3,5.8-1.4,8.8l2.9,9.5c1.3,4.4,5.2,7.3,9.5,7.3h239.7
		L376,609.4z"/>
	<path class="st38" d="M125,625.6c-0.3,0-0.6,0-0.9-0.1l1.9,6.4c1.3,4.4,5.2,7.3,9.5,7.3h239.7l0.4-13.6H125z"/>
	<path class="st39" d="M435.2,619.7c-0.5-5.8-5.1-10.3-10.7-10.3h-50.7c-2.2,0-4.3,1-5.8,2.7c-1.5,1.7-2.2,4-2.1,6.3l0.9,10.7
		c0.5,5.7,5,10,10.4,10h50.5c2.4,0,4.6-1,6.2-2.9c1.6-1.8,2.4-4.3,2.2-6.7L435.2,619.7z"/>
	<polygon class="st33" points="310.8,571.6 320.9,571.6 320.7,570.4 309.1,570.4 310.8,580.6 312.3,580.6 	"/>
	<rect x="776.9" y="490.2" class="st40" width="33.8" height="11.5"/>
	<polygon class="st6" points="812.1,488.3 779.7,488.3 779.7,499.8 808.7,499.8 	"/>
	<rect x="913.1" y="490.2" class="st40" width="33.8" height="11.5"/>
	<polygon class="st15" points="948.2,488.3 915.9,488.3 915.9,499.8 944.9,499.8 	"/>
	<polygon class="st33" points="343.3,556.6 345.3,568.2 349.5,568.2 346.9,552.8 329.1,552.8 329.7,556.6 	"/>
	<polygon class="st33" points="131.4,560.5 133.5,570.4 129.8,570.4 127,557.2 142.8,557.2 143.5,560.5 	"/>
	<g>
		<polygon class="st8" points="863.3,649.7 568.2,649.7 555.6,636.4 565.9,636.4 578.5,643.2 858.6,643.2 869.9,633.8 884.4,634.2 
					"/>
	</g>
	<polygon class="st39" points="1027.5,635.7 1062,635.7 1066.3,618.8 1027.7,621.9 	"/>
	<polygon class="st41" points="700.3,309.9 700.8,314.4 762.3,296.2 763.1,293.8 	"/>
	<polygon class="st42" points="626.5,327.9 624,332.7 676.1,318 676.8,315.6 	"/>
	<polygon class="st43" points="767.5,295.4 781.9,303.3 782.7,328.4 	"/>
	<polygon class="st44" points="1071.5,546.5 1060.9,546.5 1057.5,559.3 1068.1,559.3 	"/>
</g>
<g>
	<path class="st45" d="M914.6,291.7c-14.1-24.7-38.2-64.7-11.2-88.8c27-24.1,61.5-6.5,75.9,13.3c31.2,42.9-41.2,81.9-41.2,81.9
		L914.6,291.7z"/>
	<path class="st46" d="M920.8,192.8c0,0,15.2,18,50.2,17.8l0.5-2.9c0,0-4.2-5.4-11.5-8.1C952.9,197,920.8,192.8,920.8,192.8z"/>
	<path class="st46" d="M979.3,216.2c-2.8-3.9-6.4-7.7-10.6-11.1c-0.5,22.7-27.4,14.9-44.7,14.9c-14.1,0-23.1,32.3-31.3,23.6
		c3.9,17.2,14.3,34.8,21.9,48l23.5,6.5C938.1,298.1,1010.5,259.1,979.3,216.2z"/>
	<g>
		<path class="st47" d="M907.1,273.4c1.4,0.9,2.4-9.6,0.5-11.5c-1.9-2-4.7-3.7-4.9-0.4C902.4,264.8,904.7,271.9,907.1,273.4z"/>
		<path class="st48" d="M906.5,270.5c0.8,0.5,1.4-5.5,0.3-6.6c-1.1-1.1-2.7-2.1-2.8-0.2C903.8,265.6,905.2,269.6,906.5,270.5z"/>
		<path class="st47" d="M906.6,271.8c0.5,0.3,0.9-3.5,0.2-4.3c-0.7-0.7-1.7-1.4-1.8-0.1C904.9,268.5,905.7,271.2,906.6,271.8z"/>
	</g>
	<path class="st49" d="M946.9,354c8.2,10.5,38.3,49.1,43.8,51.9c5.4,2.8,21.4-16.1,18.6-22.8c-4.3-10.1-34.5-67-46-71.8
		C954.5,307.6,933.8,337.1,946.9,354z"/>
	<path class="st49" d="M890.3,360.4c-11.3,6.8-52.7,26.1-59.1,27c-6.3,0.8-20.9-18.3-15.3-23.9c8.4-8.4,57.4-46.7,69.5-46.5
		C894.6,317.1,908.1,349.6,890.3,360.4z"/>
	<path class="st50" d="M869.3,375.8l-37.4-29.6c0,0,49.3-44.1,68.9-32.7c12.7,7.5,8.2,28.1-7.9,46.5
		C884.2,369.7,869.3,375.8,869.3,375.8z"/>
	<g>
		<path class="st51" d="M883.4,344.6c-9.1,4.8-25,16.8-31.1,17.7l17,13.4c0,0,14.9-6.1,23.5-15.9c8.5-9.6,13.7-19.9,15-28.5
			C901.7,339.4,896,337.9,883.4,344.6z"/>
	</g>
	<polygon class="st52" points="829.6,347.8 835.9,339.8 873.4,376.1 865.4,380.1 	"/>
	<g>
		<path class="st53" d="M837.5,341.3l-1.6-1.6l-6.3,8l5.2,4.7C835,348.4,835.9,344.6,837.5,341.3z"/>
		<path class="st53" d="M864.3,367.2c-1.6,2.7-3.7,4.9-6,6.4l7.1,6.4l8.1-4L864.3,367.2z"/>
	</g>
	<g>
		<path class="st54" d="M962.3,473.7c0-0.7-0.1-1.2,4.8-1.2c4.8,0,4.8,0.6,4.8,1.3c0,0.7,0.1,1.2-4.8,1.2
			C962.3,475,962.3,474.4,962.3,473.7z"/>
		<path class="st54" d="M998.1,467.4c0.4,0,0.8,0.1,1.1,0.4c0.3,0.3,0.5,0.7,0.5,1.1l0.1,4.2c0,0.4-0.2,0.8-0.5,1.1
			c-0.3,0.3-0.7,0.4-1.2,0.4l-9.8-0.5c-0.9-0.1-1.7-0.8-1.7-1.7l-0.1-2.6c0-1.1,0.9-2.1,2.1-2.1L998.1,467.4z"/>
		<polygon class="st54" points="994.6,468.1 994.7,473.9 967.7,473.1 967.6,468.2 		"/>
		<path class="st54" d="M961.7,436.1c0-0.5,0.1-1,0.5-1.4c0.3-0.4,0.8-0.6,1.3-0.6l5.1,0c0.5,0,1,0.2,1.4,0.6
			c0.4,0.4,0.6,0.9,0.6,1.5l-0.2,12.2c0,1.2-0.9,2.1-2,2.1l-3.1,0c-1.4,0-2.6-1.2-2.7-2.6L961.7,436.1z"/>
		<polygon class="st54" points="962.6,440.4 969.7,440.4 970,473.9 964,473.8 		"/>
		<path class="st54" d="M964.9,467.9l4,0l4.1,96.4c0,1.2-0.4,2.3-1.2,3.1c-0.8,0.8-2,1.3-3.3,1.3c-0.8,0-1.5-0.3-2.1-0.8
			c-0.6-0.5-0.9-1.2-0.9-2L964.9,467.9z"/>
	</g>
	<path class="st55" d="M880.9,438.1l79.2-3.5c1.9,19.4-5.2,108.8-6.7,122.9c-0.7,6.2,0.5,29.9-1.8,54.7c-2.9,31.8-9.3,63.9-9.3,63.9
		h-4.8c0,0-14.5-59.8-14.7-63.9c-0.2-4.1,5.4-49.5,5.4-49.5s-9.3-58.7-14.6-59.3c-5.4-0.6-19,40.7-23.4,59.4
		c-4.4,18.6-0.9,32.5-4.6,49.1c-4.3,19.5-33.5,64.2-33.5,64.2h-6.9C853.7,640.3,880.9,438.1,880.9,438.1z"/>
	<g>
		<path class="st56" d="M863.1,565.7c-7,48.1-14.2,94.9-17.8,110.5h6.9c0,0,29.2-44.8,33.5-64.2c3.2-14.5,0.9-26.9,3.3-42.3
			C879.9,569.2,871.2,567.8,863.1,565.7z"/>
		<path class="st56" d="M927.8,566.3c-1.3,10.8-5.1,42.5-5,45.9c0.2,4.1,14.7,63.9,14.7,63.9h4.8c0,0,6.4-32.1,9.3-63.9
			c2.2-24,1.2-47.1,1.7-54.1C945.4,561.5,936.9,564.3,927.8,566.3z"/>
	</g>
	<path class="st57" d="M879.4,445.8l-0.5,9.4c0,0,42.2,9.4,78.7,3.8l0.5-12.9L879.4,445.8z"/>
	<g>
		<path class="st57" d="M911,502.5c-5.4-0.6-21.7,41.7-26.1,60.3c-4.4,18.6-0.9,32.5-4.6,49.1c-4.3,19.5-33.5,64.2-33.5,64.2h5.4
			c0,0,29.2-44.8,33.5-64.2c3.7-16.6,0.2-30.5,4.6-49.1c3.7-15.6,17.2-50.5,23.5-60C913,501.1,911.7,502.6,911,502.5z"/>
		<path class="st57" d="M960.1,434.6l-16.6,1.3c1.9,19.8,6,107.5,4.5,121.6c-0.7,6.2,0.5,29.9-1.8,54.7c-2.6,28.1-7.8,56.4-9,62.6
			c0.2,0.8,0.3,1.3,0.3,1.3h4.8c0,0,6.4-32.1,9.3-63.9c2.3-24.7,1.1-48.5,1.8-54.7C954.9,543.4,962,454,960.1,434.6z"/>
	</g>
	<path class="st50" d="M960.3,450.4c-2.5,3.6-74.6,6.3-80.7,0c0,0,2.5-131.9,8.6-137.4c3.9-3.5,32.2-5.5,53.2-5.1
		c11.9,0.2,21.4,1.1,22.8,3.2C968.1,317,967,440.6,960.3,450.4z"/>
	<path class="st51" d="M894.2,416.8c0,0-11-36.1-12.7-59.1l0.2,28.2C881.7,386,885.8,402.4,894.2,416.8z"/>
	<path class="st51" d="M965.9,313.4c-0.6-0.9-3,4.5-6.2,4c0.3,29.5-9.5,119.4-15.4,135.7c8.9-0.7,15.2-1.6,16-2.7
		C967,440.6,969.8,319.3,965.9,313.4z"/>
	<g>
		<path class="st58" d="M913.2,454.2l-1.1,0c0.2-15.9,4.1-116.4,10.9-140l2.1,0.6C918.4,338.1,913.5,438.3,913.2,454.2z"/>
	</g>
	<path class="st47" d="M957.2,460.6c10.5-13.3,49.1-47.9,52.8-55.7c2.4-5.1,1.8-16.4-0.4-19.1c-8.5-10.2-19.2-6.1-23.4,1.4
		c-4.3,7.5-31.6,71.4-31.6,71.4L957.2,460.6z"/>
	<path class="st49" d="M1010.8,384.8c-8.5-10.2-20.4-6.2-24.7,1.3c-0.1,0.1-0.1,1.5-0.2,1.6c7.3-3.1,13.4-4.4,16.4-3
		c8.2,3.9-2.7,26.9-23.7,47.2c-9.5,9.2-13.3,18.1-19.5,23.9c-0.6,1.5-4.6,2.9-4.6,2.9l2.6,1.9c10.5-13.3,50.3-47.6,53.9-55.3
		C1013.6,400.2,1013.1,387.5,1010.8,384.8z"/>
	<path class="st47" d="M944.7,309l-1.3-36.1l-25.4,5.9l-4.4,32.1C913.5,310.9,934.5,315.5,944.7,309z"/>
	<path class="st50" d="M971.6,389.7l31.8-25.5c0,0-27.9-58.8-46.3-53.7c-12,3.3-4.4,38.8,3.9,61.2
		C965.5,383.5,971.6,389.7,971.6,389.7z"/>
	<path class="st51" d="M969.6,314.4c4,5.1,7.7,11.6,10.6,19.1c8,20.2,7.2,39.5-1.8,43c-5.4,2.1-13.8-5.6-20.4-13.7
		c0.6,1.8,1.6,8.6,2.2,10.3c4.4,11.9,11.4,16.6,11.4,16.6l34.9-24.7C1006.5,365,986.9,327.3,969.6,314.4z"/>
	<path class="st55" d="M971,344.6l12.9-10.9c0,0,12.1,14.1,9.7,24.1C993.7,357.8,983.1,361.9,971,344.6z"/>
	<path class="st51" d="M938.8,352.9c0,0-7.9,12.3-3.7,15.7c4.2,3.4,7,3.2,7,3.2s6.2-2.6,7.3-4.7c2.1-3.8-3.9-14.9-3.9-14.9
		L938.8,352.9z"/>
	<path class="st59" d="M937.9,351.7c0,0-7.9,11.7-3.7,15.2c4.2,3.6,6.9,3.5,6.9,3.5s6.2-2.2,7.3-4.3c2.1-3.7-3.9-14.8-3.9-14.8
		L937.9,351.7z"/>
	<polygon class="st47" points="924.1,316 917.8,310.4 933.2,311 	"/>
	<polygon class="st60" points="910.8,319.1 920.3,311.6 914.4,304.6 908.1,308.4 	"/>
	<polygon class="st60" points="936.6,320.8 929.6,312 946,303.1 950.8,307.8 	"/>
	<path class="st61" d="M831.1,679.8h23.2c0,0,0.8-7.7-4.7-8C844,671.4,831.1,679.8,831.1,679.8z"/>
	<path class="st61" d="M931.9,679.8h15.3c0,0-1.8-7.2-7.4-7.5C934.2,672,931.9,679.8,931.9,679.8z"/>
	<path class="st57" d="M898.7,495c4.6,3,24.4,5.4,33.8,0.5c0,0-10.2,8.9-20.7,8.3C901.4,503.3,898.7,495,898.7,495z"/>
	<polygon class="st57" points="911.9,459 911.6,492.8 914,493.4 915.4,458.5 	"/>
	<polygon class="st62" points="908.9,458.2 920.9,459.1 920.9,466.3 908.8,465.4 	"/>
	<path class="st63" d="M973.3,344.6l11-9.3c0,0,10.3,12,8.3,20.5C992.6,355.9,983.5,359.4,973.3,344.6z"/>
	<path class="st64" d="M981.1,348.1l5.4-4.5c0,0,5,5.9,4.1,10.1C990.6,353.6,986.2,355.3,981.1,348.1z"/>
	<polygon class="st64" points="974.9,344.8 977.3,347.9 987,340.6 983.9,337.5 	"/>
	<polygon class="st52" points="971.8,392 965,384.9 1005.8,358.2 1008.8,365.5 	"/>
	<g>
		<path class="st53" d="M998.2,368.8c0.5,1.1,0.9,2.3,1.2,3.5l9.4-6.7l-3-7.3l-10.1,6.6C996.7,366,997.5,367.3,998.2,368.8z"/>
		<path class="st53" d="M973,380.8c-0.1-0.3-0.3-0.6-0.4-0.9l-7.7,5l6.8,7.2l6.5-4.7C976.2,385.7,974.3,383.5,973,380.8z"/>
	</g>
	<path class="st65" d="M938.6,353.6c0,0-6.3,9.3-2.9,12.1c3.3,2.8,5.5,2.8,5.5,2.8s4.9-1.8,5.8-3.4c1.6-2.9-3.1-11.8-3.1-11.8
		L938.6,353.6z"/>
	<polygon class="st59" points="943.9,362.3 946.5,360.9 944,359.8 944.2,356.5 942.1,357.7 940.9,355.8 939.9,358.1 937.3,357.4 
		938.2,359.7 935.9,360.6 938.3,361.9 937.7,365.2 940.4,364 941.9,366.1 942.6,364.2 944.6,364.9 	"/>
	<path class="st66" d="M919.4,331.2c17.7,5,35-10.6,42.5-21.3c-2.4-0.8-6.5-1.3-11.7-1.6l0.5-0.4l-4.7-4.7l-1.5,0.8l-1.2-31.1
		l-12.4,2.9l-14.1,11.1l-2.5,17.8l0,0l-6.3,3.8l0.2,0.8c-0.7,0.1-1.5,0.1-2.2,0.2C905.1,318.4,907.4,327.8,919.4,331.2z"/>
	<g>
		<path class="st67" d="M953.9,164.4c-18.6-6.2-57.6,19.6-29,24.8l43,6.4C987.1,200.2,974.8,171.4,953.9,164.4z"/>
		<path class="st68" d="M968.6,173.9c0.8,1.7,1.1,3.4,1,5.1c-0.6,8.1-11.4,13.3-24.3,11.6c-12.9-1.7-22.8-9.7-22.3-17.8
			c0-0.4,0.1-0.8,0.2-1.2c-9.6,6.5-13.4,15,1.7,17.7l43,6.4C981.9,198.9,979.1,184.6,968.6,173.9z"/>
		<path class="st55" d="M966,203.5c-23.1-3.7-29.5-8.1-44.9-11l1.5-4.1c0,0,19-12.3,48.3,5.8L966,203.5z"/>
		<g>
			<path class="st69" d="M926,191.2c0-2.3,2.2-4.5,5.7-6c-5.9,1.2-9.1,3.3-9.1,3.3l-1.5,4.1c2.1,0.4,4,0.8,5.8,1.2
				C926.3,192.9,926,192.1,926,191.2z"/>
			<path class="st69" d="M966.4,191.6c-0.5,4.3-8.3,7.8-18.3,8.2c4.8,1.3,10.5,2.5,18,3.7l4.9-9.3
				C969.4,193.2,967.8,192.4,966.4,191.6z"/>
		</g>
		<path class="st70" d="M921.1,192.5c0,0,6.8,4.8,21.2,9.5c11.4,3.8,23.8,1.4,23.8,1.4C960.8,200.9,939.9,190.2,921.1,192.5z"/>
		<path class="st68" d="M953.8,174.8c0.1-3.2-2.1-5.8-5-5.8s-5.2,2.6-5.3,5.8c-0.1,3.2,2.1,5.8,5,5.8
			C951.3,180.6,953.7,178,953.8,174.8z"/>
		<path class="st71" d="M953.1,174.8c0.1-2.7-1.8-4.9-4.3-4.9s-4.5,2.2-4.6,4.9c-0.1,2.7,1.8,4.9,4.3,4.9
			C950.9,179.8,953,177.6,953.1,174.8z"/>
		<path class="st70" d="M921.1,192.5c0,0,6.8,4.8,21.2,9.5c11.4,3.8,23.8,1.4,23.8,1.4C960.8,200.9,939.9,190.2,921.1,192.5z"/>
		<path class="st72" d="M936.2,193.4l2.4,7c1.2,0.4,2.4,0.9,3.7,1.3c2.5,0.8,5,1.3,7.5,1.6l-3.7-7.6
			C943,194.8,939.6,194,936.2,193.4z"/>
		<path class="st73" d="M948.5,174.2c1.7-0.2,3.2-0.1,4.6,0.2c-0.1-2.5-1.9-4.6-4.3-4.6c-2.4,0-4.5,2.2-4.6,4.9c0,0.2,0,0.4,0,0.6
			C945.4,174.9,946.9,174.4,948.5,174.2z"/>
		<path class="st74" d="M953.9,164.8c13.4,4.5,23.3,18,23.5,25.8c0.4-7.7-9.7-21.9-23.5-26.5c-14.1-4.7-39.8,9-39.1,18.1
			C915.4,173.1,940.2,160.2,953.9,164.8z"/>
		<path class="st68" d="M970.8,195.1l0.4-0.8c-29.5-19.1-48.6-6.1-48.6-6.1l-0.3,0.8C923.2,188.4,942.1,176.5,970.8,195.1z"/>
		<path class="st72" d="M942.4,201.5c-11.3-3.7-17.9-7.5-20.2-8.9c-0.4,0-0.8,0-1.1,0.1c0,0,6.8,4.8,21.2,9.6
			c11.4,3.8,23.8,1.4,23.8,1.4c-0.3-0.1-0.7-0.3-1.1-0.5C961.5,203.6,951.6,204.6,942.4,201.5z"/>
	</g>
	<path class="st47" d="M907.7,289.3c0.2,1.2,14.5,13.7,16.9,13.7s24.7-12.9,25.5-16.5c0.8-3.5,0.4-58.8-5.1-61.2
		c-5.5-2.4-23.8-3.3-26.9,1C914.9,230.7,903,262.3,907.7,289.3z"/>
	<path class="st48" d="M917.6,265.4c4.4-2.9,7.1-7.5,7.7-9.3c0.2-0.7,0.2-1.7,0.1-2.7c1.3-0.3,2.8-0.1,4.2,0.8
		c-0.3,0.8-0.5,1.7-0.4,2.3c0.1,1.9,1.6,6.9,5.2,10.7c3.6,3.8,12.7,1.8,14.2-0.3c0.6-0.9,1.3-2.7,1.7-4.8c-0.1-2.6-0.2-5.2-0.3-7.9
		c-0.1-0.1-0.2-0.3-0.3-0.4c-1.7-2-10.8-2.8-15.6-3c-0.1,0-0.2,0-0.3,0l-11.4-1.2c-0.1,0-0.2-0.1-0.3-0.1c-3.8-0.6-10.4-1.5-14-0.9
		c-1.2,4.6-2.2,9.8-2.8,15.1C907.7,265.7,914,267.8,917.6,265.4z M931.7,251.3c-0.8,0.5-1.5,1.2-1.9,2.1c0,0,0,0.1,0,0.1
		c-1.5-1-3.1-1.2-4.5-0.9c-0.2-0.9-0.6-1.6-1.3-2.2L931.7,251.3z"/>
	<g>
		<g>
			<path class="st75" d="M931.1,255.5c-3.2-6.3-9.1-3.9-10.4-1.1l-0.4-0.4c1.6-3.4,7.8-5.5,11.2,1L931.1,255.5z"/>
		</g>
		<g>
			<polygon class="st75" points="933.3,249.7 920,248.4 920.1,247.6 933.4,248.9 			"/>
		</g>
		<path class="st75" d="M902.8,261.5c0.9,2.5,9.4,6.5,13.9,3.3c4.4-3.2,7.1-8.1,7.6-10.1c0.2-0.8,0.2-2.1,0-3.4
			c-0.2-1.9-1.6-3.4-3.5-3.7c-4.8-0.7-13.9-1.8-16.1-0.1C901.9,249.9,901.9,258.9,902.8,261.5z"/>
		<path class="st75" d="M947.7,265.9c-1.4,2.3-10.6,4.5-14.2,0.5c-3.6-4-5.2-9.4-5.3-11.4c0-0.9,0.3-2.1,0.7-3.3
			c0.6-1.8,2.3-3,4.1-2.9c4.8,0.2,14,0.9,15.7,3C951.1,254.7,949.2,263.6,947.7,265.9z"/>
		<path class="st76" d="M947.2,265.5c-1.4,2.1-9.9,4.2-13.4,0.5c-3.4-3.7-4.9-8.8-5-10.7c0-0.8,0.3-2,0.7-3.1
			c0.6-1.7,2.2-2.8,3.9-2.8c4.5,0.2,13.1,0.8,14.8,2.8C950.3,254.9,948.6,263.3,947.2,265.5z"/>
		<path class="st77" d="M929.8,259.3c2.5-1.9,6.2-2.9,10.2-2.5c3.6,0.4,6.7,1.8,8.8,3.8c0.6-3.1,0.7-6.7-0.6-8.3
			c-1.6-2-10.2-2.6-14.8-2.8c-1.7-0.1-3.3,1-3.9,2.8c-0.4,1.1-0.7,2.3-0.7,3.1C928.9,256.1,929.2,257.6,929.8,259.3z"/>
		<path class="st78" d="M929.6,255.9c0.4,2.2,1.8,6.2,4.6,9.3c2,2.2,5.9,2.3,8.9,1.5C938.1,264.9,931.9,260.2,929.6,255.9z"/>
		<path class="st79" d="M947.7,252.5c-1.5-1.9-9.8-2.5-14.1-2.7c-0.7,0-1.3,0.1-1.9,0.4c0.2,0,0.4,0,0.6,0.1
			c0.3-0.1,0.6-0.1,0.9-0.1c4.3,0.2,12.6,0.8,14.1,2.7c1.2,1.5,1.2,4.7,0.7,7.5c0.1,0.2,0.1,0.3,0.2,0.5
			C948.9,257.8,949,254.1,947.7,252.5z"/>
		<path class="st76" d="M903.4,261.2c0.9,2.4,8.9,6.1,13.1,3.1c4.2-3,6.7-7.7,7.2-9.6c0.2-0.8,0.2-2,0-3.2c-0.2-1.8-1.5-3.2-3.3-3.5
			c-4.5-0.7-13.2-1.7-15.2-0.1C902.5,250.2,902.5,258.8,903.4,261.2z"/>
		<path class="st77" d="M914.2,254.8c3.4,0.3,6.3,1.5,8.2,3c0.7-1.2,1.2-2.3,1.4-3c0.2-0.8,0.2-2,0-3.2c-0.2-1.8-1.5-3.2-3.3-3.5
			c-4.5-0.7-13.2-1.7-15.2-0.1c-2,1.7-2.6,6.8-2.4,10.3C904.5,255.8,909,254.2,914.2,254.8z"/>
		<path class="st78" d="M908.4,260.4c-2.1-1.4-3.8-3-5-4.6c-0.1,2.1,0.1,4.1,0.4,5.1c0.8,2.1,8.1,5.5,11.9,2.8
			c0.2-0.1,0.4-0.3,0.6-0.4C914.1,263.1,911.2,262.2,908.4,260.4z"/>
		<path class="st79" d="M923.1,251.5c-0.2-1.7-1.4-3-3-3.2c-3.3-0.5-8.9-1.2-12.1-0.8c0.3,0.1,0.7,0.1,1,0.2
			c3.3-0.1,7.9,0.4,10.7,0.9c1.6,0.2,2.8,1.6,3,3.2c0.1,1.1,0.2,2.2,0,2.9c-0.2,0.7-0.7,1.8-1.4,3.1c0,0,0,0.1,0,0.1
			c0.9-1.4,1.5-2.7,1.7-3.5C923.3,253.7,923.2,252.6,923.1,251.5z"/>
	</g>
	<path class="st80" d="M921.2,275.1c-0.6-0.9,3.2-12.2,5-17.8c-0.3-1.3-0.6-1.7-0.9-0.8c-1.6,5.1-5.9,17.8-5.3,18.8
		c0.6,1,8.3,2.7,8.3,2.7s0-0.2,0-0.5C926.1,277,921.6,275.9,921.2,275.1z"/>
	<path class="st47" d="M952.5,276.5c-1.9,0.8-1.8-11.2,0.8-13.3c2.6-2,6.2-3.5,6.1,0.2C959.3,267.2,955.6,275,952.5,276.5z"/>
	<path class="st48" d="M953.6,273.2c-1.1,0.5-1-6.4,0.5-7.6s3.6-2,3.5,0.1C957.5,267.9,955.4,272.4,953.6,273.2z"/>
	<path class="st47" d="M953.3,274.6c-0.7,0.3-0.7-4.2,0.3-4.9c1-0.7,2.3-1.3,2.3,0.1C955.8,271.2,954.5,274.1,953.3,274.6z"/>
	<path class="st47" d="M888.8,378.4c-0.2-2.3-2.9-3.3-3.2-3.6c-0.1-2-1.8-5.5-3-5.2c-1,0.2,1.1,7.2,2.8,12.6
		C885.4,382.2,889,381.1,888.8,378.4z"/>
	<g>
		<polygon class="st55" points="894.4,387.6 878.5,363.3 885.3,357.9 890.2,356.3 906.3,385.4 903.7,388.1 		"/>
		<g>
			<path class="st55" d="M884,367.3l-13.8-20.1c-0.1-0.2-0.1-0.5,0.1-0.7c0.3-0.2,0.7-0.1,0.9,0.1l14.6,19.4L884,367.3z"/>
		</g>
		<g>
			<polygon class="st81" points="883.2,367.1 878.1,359.2 880.3,358 888.5,367.1 			"/>
		</g>
		<path class="st55" d="M885.2,359.9l-2.3-3.2c-0.1-0.2-0.4-0.3-0.6-0.3c-0.2,0-0.5,0-0.6,0.2l0,0c-0.3,0.2-0.3,0.7-0.1,1l2.5,3.5
			L885.2,359.9z"/>
		<polygon class="st82" points="894.4,388.5 878.5,363.3 885.3,357.9 903.7,388.1 		"/>
		<polygon class="st82" points="888.9,359.9 890.3,359.4 894.5,366.5 893.5,367.6 		"/>
		<polygon class="st82" points="894.4,368.2 894.9,367.8 896.7,371 896.3,371.6 		"/>
	</g>
	<path class="st51" d="M931.2,435.6c0,0,23.1-23.1,27.1-41.6l-0.5,25C957.8,419,947.1,432.1,931.2,435.6z"/>
	<path class="st83" d="M882.2,470c1.7-0.6,6.3-23.8,5.4-24.8c-0.9-1.1-9.1-4.6-10.6-3.9c-1.5,0.7-2.6,25.9-1.6,26.9
		C876.3,469.1,881,470.4,882.2,470z"/>
	<path class="st84" d="M887.6,445.2c-0.2-0.3-1-0.7-2-1.2c0.2,3.6-3.9,23.8-5.5,24.3c-0.8,0.3-3.1-0.2-4.9-0.9
		c0.1,0.4,0.1,0.7,0.2,0.7c0.9,0.9,5.6,2.3,6.8,1.9C883.9,469.5,888.5,446.2,887.6,445.2z"/>
	<path class="st55" d="M880.5,451.2c0-1.1-0.6-2-1.4-2c-0.8,0-1.4,0.9-1.4,2c0,1.1,0.6,2,1.4,2C879.8,453.2,880.5,452.3,880.5,451.2
		z"/>
	<polygon class="st63" points="911.4,350.4 890.4,349.5 889.6,353.9 910.6,354.8 	"/>
	<path class="st47" d="M890.7,379.5c-15.9-2.1-60.7-22-66.2-20.4c-5.5,1.6-10.2,4.8-11.6,8c-5,12.2,6.1,22.7,14.4,22.6
		c8.3-0.2,62.9-7.1,62.9-7.1L890.7,379.5z"/>
	<path class="st49" d="M859.6,380.7c-24.2-1.9-43.6-7.9-43.1-13.4c0.1-1.5,0.4-3.4,1.3-5.1c-2.3,1.5-4.1,3.2-4.9,5
		c-5,12.2,4.8,24.2,13.1,24.1c8.3-0.2,64.2-8.6,64.2-8.6l0.4-2.4C882.5,381.4,871.6,381.7,859.6,380.7z"/>
	<path class="st85" d="M917.4,280.9l17-0.5c0,0-0.3,9.5-3.6,9.8c-3.2,0.3-10.1-0.9-10.8-1.7C919.4,287.7,917.4,280.9,917.4,280.9z"
		/>
	<path class="st86" d="M918.2,281.2l15.3-0.2c0,0-0.3,8.5-3.3,8.8c-2.9,0.3-9.3-0.8-9.9-1.6C919.8,287.4,918.2,281.2,918.2,281.2z"
		/>
	<polygon class="st85" points="920.1,288.3 920.2,284.8 918.2,281.9 919.1,285.5 	"/>
	<path class="st85" d="M934.8,280.4c0-0.3-0.2-0.5-0.5-0.5c-0.3,0-0.5,0.2-0.5,0.5s0.2,0.5,0.5,0.5
		C934.6,280.9,934.8,280.7,934.8,280.4z"/>
	<path class="st85" d="M917.9,281.1c0-0.2-0.2-0.4-0.4-0.4c-0.2,0-0.4,0.2-0.4,0.4s0.2,0.4,0.4,0.4
		C917.7,281.5,917.9,281.3,917.9,281.1z"/>
	<path class="st45" d="M933.5,246.5c-1-0.6-1.2-5.5,0.4-6.1c1.6-0.6,12.8,3.1,13.2,3.7c0.5,0.6-1.2,4.7-1.7,4.6
		C944.8,248.6,935,247.3,933.5,246.5z"/>
	<path class="st45" d="M921.7,245.7c1.1-0.4,2.4-5.1,1-6c-1.4-0.9-12.9,0.2-13.5,0.7c-0.6,0.5,0.1,4.8,0.6,4.9
		C910.4,245.3,920.1,246.2,921.7,245.7z"/>
	<g>
		<path class="st47" d="M882,378.5c2.5,0.4,8.5-1.6,9.8-2.6c1.4-1,6.5,4.7,5.5,6.3c-1,1.6-13.1,0.6-13.1,0.6
			C882.3,381.9,881.3,380.8,882,378.5z"/>
		<path class="st47" d="M894.2,380.5c2,0.1,4.2-0.1,4.8-0.2c0.6-0.1,3.6-1.7,4.2-0.4c0.6,1.3-6.1,3.7-9.6,3L894.2,380.5z"/>
		<path class="st47" d="M893.4,378.6c2-0.8,4.1-1.9,4.8-2.2c0.6-0.3,3-3.3,4-2.2c1,1.2-4.7,6.4-8.5,7.2L893.4,378.6z"/>
		<path class="st47" d="M891.6,376.4c1.6-1.3,3.2-2.9,3.6-3.4c0.5-0.5,1.7-4.2,3-3.2c1.3,1-2.3,7.7-5.5,9.4L891.6,376.4z"/>
	</g>
	<g>
		<path class="st87" d="M934.6,456.5c-4.6,0.8-7.6,5.1-6.9,9.6c0.8,4.6,5.1,7.6,9.7,6.9c4.6-0.8,7.6-5.1,6.9-9.7
			C943.5,458.8,939.2,455.7,934.6,456.5z M937.2,471.6c-3.7,0.6-7.3-1.9-7.9-5.6c-0.6-3.7,1.9-7.3,5.6-7.9c3.7-0.6,7.3,1.9,7.9,5.6
			C943.4,467.4,940.9,470.9,937.2,471.6z"/>
		<path class="st87" d="M935.7,455.6c-0.5,0.1-1,0.2-1.4,0.4c-0.2,0.7-0.2,1.4-0.1,2.2c0.1,0.5,0.3,1,0.5,1.5c0.5-0.3,1-0.5,1.6-0.6
			c2.3-0.4,4.5,1.2,4.8,3.4c0,0.1,0,0.2,0,0.3c0,0,0,0,0,0c1.3-0.2,2.4-0.8,3.2-1.5C943.4,457.4,939.7,454.9,935.7,455.6z"/>
		<path class="st88" d="M942.3,460.2c0.3-0.3,0.3-0.9-0.1-1.3c-0.4-0.4-0.9-0.5-1.3-0.2c-0.3,0.3-0.3,0.9,0.1,1.3
			C941.4,460.4,942,460.5,942.3,460.2z"/>
	</g>
	<g>
		<path class="st87" d="M944,460.7c-3.4,3.1-3.6,8.4-0.5,11.8c3.1,3.4,8.4,3.6,11.8,0.5c3.4-3.1,3.6-8.4,0.5-11.8
			C952.7,457.8,947.4,457.6,944,460.7z M954.3,471.9c-2.8,2.6-7.1,2.4-9.7-0.4c-2.6-2.8-2.4-7.1,0.4-9.7c2.8-2.6,7.1-2.4,9.7,0.4
			C957.3,465,957.1,469.3,954.3,471.9z"/>
		<path class="st87" d="M944.4,459.3c-0.4,0.3-0.7,0.7-1,1.1c0.2,0.7,0.6,1.3,1.1,1.9c0.4,0.4,0.8,0.7,1.2,1c0.2-0.5,0.6-1,1-1.4
			c1.7-1.6,4.4-1.5,5.9,0.2c0.1,0.1,0.1,0.2,0.2,0.2c0,0,0,0,0,0c0.9-0.9,1.6-1.9,1.9-3.1C951.8,456.6,947.3,456.6,944.4,459.3z"/>
	</g>
	<g>
		<path class="st47" d="M961.7,451.9c-1.1,2.3-0.9,8.8-0.4,10.4c0.6,1.6-6.3,6.3-7.6,4.8c-1.3-1.5,3-14.4,3-14.4
			C958.3,451.2,959.6,450.5,961.7,451.9z"/>
		<path class="st47" d="M956.1,465.6c-0.6,2-1.1,4.2-1.3,4.8c-0.1,0.6,0.6,4.1-0.8,4.2c-1.5,0.2-1.8-7.1-0.1-10.4L956.1,465.6z"/>
		<path class="st47" d="M958.5,464.4c0,2,0.3,4.3,0.4,4.9c0.1,0.6,1.9,3.7,0.6,4.3c-1.4,0.5-4.1-6.3-3.5-9.8L958.5,464.4z"/>
		<path class="st47" d="M961.1,461.5c0.3,2,0.9,4.2,1.1,4.8c0.2,0.6,2.5,3.5,1.2,4.1c-1.3,0.7-4.9-5.8-4.9-9.3L961.1,461.5z"/>
		<path class="st47" d="M955.5,461.3c-0.9,2.3-3.5,2.9-4,3.4c-0.5,0.5-2,3.7-3.3,3.1c-1.3-0.6,5.5-10.3,8.9-14.9
			C957.1,452.9,956.4,459,955.5,461.3z"/>
	</g>
</g>
<g>
	<g>
		<path class="st89" d="M314.8,404.5c-0.7,2.8,1.2,10,2.2,11.6c1,1.7-5.4,8.5-7.2,7.2c-1.8-1.3-0.2-16.6-0.2-16.6
			C310.8,404.6,312.1,403.4,314.8,404.5z"/>
		<path class="st89" d="M312,420.9c-0.2,2.3-0.2,4.9-0.2,5.6c0,0.7,1.7,4.3,0.1,4.9c-1.6,0.5-3.7-7.4-2.7-11.4L312,420.9z"/>
		<path class="st89" d="M314.3,419c0.5,2.2,1.4,4.6,1.6,5.3c0.3,0.7,3.1,3.6,1.7,4.5c-1.4,0.9-6-5.9-6.3-10L314.3,419z"/>
		<path class="st89" d="M316.4,415.1c0.8,2.1,2,4.4,2.4,5c0.4,0.7,3.6,3.2,2.3,4.3c-1.2,1.1-6.8-5.1-7.7-9.1L316.4,415.1z"/>
		<path class="st89" d="M310.3,416.3c-0.4,2.8-3.2,4.1-3.6,4.7c-0.4,0.6-1.3,4.6-2.9,4.3c-1.6-0.4,3.5-12.7,6.1-18.6
			C309.9,406.7,310.7,413.5,310.3,416.3z"/>
	</g>
	<g>
		<path class="st90" d="M311.4,406.3c-1.7,2.4-2.6,9.7-2.2,11.6c0.4,1.9-8.2,5.9-9.3,4.1c-1.2-1.9,5.9-15.5,5.9-15.5
			C307.7,405,309.4,404.4,311.4,406.3z"/>
		<path class="st90" d="M302.8,420.6c-1.1,2.1-2,4.4-2.3,5.1c-0.3,0.7,0,4.7-1.7,4.6c-1.7-0.1-0.8-8.3,1.7-11.6L302.8,420.6z"/>
		<path class="st90" d="M305.7,419.7c-0.3,2.3-0.4,4.8-0.5,5.5c0,0.7,1.5,4.5-0.1,4.9c-1.6,0.4-3.4-7.7-2.2-11.6L305.7,419.7z"/>
		<path class="st90" d="M309.1,416.9c0,2.3,0.2,4.8,0.3,5.6c0.1,0.7,2.1,4.3,0.6,4.8c-1.5,0.5-4.5-7.3-3.8-11.3L309.1,416.9z"/>
		<path class="st90" d="M302.9,415.7c-1.4,2.5-4.4,2.6-5.1,3.1c-0.6,0.4-2.9,3.8-4.2,2.9c-1.3-0.9,8-10.5,12.5-15.1
			C306.1,406.6,304.3,413.3,302.9,415.7z"/>
	</g>
	<polygon class="st91" points="416.5,431 431.4,437.2 427.6,425.7 422,426.8 	"/>
	<g>
		<path class="st92" d="M315.6,423.8c-0.5,0-1-0.2-1.4-0.6c-2.3-2.2-2.1-10.6-1.7-14l1.2,0.1c-0.5,4.4-0.3,11.4,1.4,13
			c0.3,0.3,0.5,0.3,0.7,0.3c0,0,0.2,0,0.3-0.2c1.4-2,0.4-10.7-0.1-13.9l1.2-0.2c0.2,1.2,1.8,12.1-0.1,14.8c-0.3,0.4-0.7,0.7-1.1,0.7
			C315.8,423.8,315.7,423.8,315.6,423.8z"/>
	</g>
	<polygon class="st92" points="308.7,402.8 312.1,400.1 317.6,409.2 315.5,410.3 	"/>
	<path class="st50" d="M284.6,253.4c8.5,7.1,14.6,41.1,19.3,44.4c4.6,3.3,16.6,27.4,18.7,28.4c2.1,1.1,9.8,8.4,11.5,13.5
		c2.7,8.1-10.8,27.4-20.7,25.5c-9.9-1.9-48.4-25.7-48.1-41.7C265.5,307.5,262,234.5,284.6,253.4z"/>
	<path class="st51" d="M288.4,260c-1.7-3.6-1.9-5-3.8-6.6C262,234.5,264.2,310,263.9,326c-0.3,16,39.6,37.3,49.5,39.2
		c5.9,1.1,13-5.2,17.3-12.3C295.1,362.9,295.8,284.4,288.4,260z"/>
	<path class="st51" d="M323.6,325.7c-16.9-2.9-22.1,3.8-22.1,3.8l2.1,5.4l-6.5-2.8c-5.8,5.1-8.7,12.1-8.5,16.6c0,0.1,0,0.2,0,0.3
		l11.1,3.8l27.1-23.9L323.6,325.7z"/>
	<path class="st93" d="M327.3,327.3c0,0-12.9-2.1-23.2,2.9l3.8,7.9l-10.2-3.3c-0.5,0.5-0.9,1-1.4,1.5c-9.9,12.4,0.9,24.2,0.9,24.2
		l19.3,5.6l18.2-26.9L327.3,327.3z"/>
	<path class="st94" d="M327.3,327.3c0,0-1.5-0.2-4-0.4c1.6,4.2,1.6,8.9-0.4,13.1c-4,8.5-14.7,11.8-23.8,7.5
		c-2.5-1.2-4.6-2.9-6.3-4.8c-3,9.8,4.4,17.8,4.4,17.8l19.3,5.6l18.2-26.9L327.3,327.3z"/>
	<path class="st90" d="M301.5,349.7c0.1,9.6,17.5,17.4,22.1,18.3c4.6,1,63,5.9,63,5.9l2.1-5.7c0,0-49.2-32.3-60.3-34.5
		C317.2,331.5,301.4,344.2,301.5,349.7z"/>
	<path class="st95" d="M349.5,366.3c-24.3-4.7-38.2-11.5-36.7-19.4c1-5.3,6.9-10.8,18.1-12.4c-1-0.4-1.8-0.6-2.5-0.8
		c-11.1-2.2-26.9,10.5-26.9,16c0.1,9.6,17.5,17.4,22.1,18.3c4.6,1,63,5.9,63,5.9l1.6-4.4C378.2,370.4,363.6,369,349.5,366.3z"/>
	<path class="st96" d="M230.9,150c-20.7,33.3,4.3,56.8,8.8,77.8l47.8-54C318.3,150.3,242.5,131.4,230.9,150z"/>
	<g>
		<path class="st54" d="M170.4,437c0.1-0.7,0.2-1.3-4.9-1.7c-5-0.4-5.1,0.1-5.1,0.8c-0.1,0.7-0.2,1.3,4.9,1.7
			C170.3,438.2,170.3,437.6,170.4,437z"/>
		<path class="st54" d="M133.7,427c-0.4-0.1-0.9,0.1-1.2,0.3c-0.3,0.3-0.6,0.6-0.6,1.1l-0.5,4.3c0,0.4,0.1,0.8,0.4,1.2
			c0.3,0.3,0.7,0.5,1.2,0.5l10.3,0.4c1,0,1.8-0.7,1.9-1.6l0.3-2.6c0.1-1.2-0.7-2.2-2-2.4L133.7,427z"/>
		<polygon class="st54" points="137.3,428.1 136.6,434 164.8,435.8 165.4,430.8 		"/>
		<path class="st54" d="M174.5,398.9c0.1-0.5,0-1.1-0.4-1.5c-0.3-0.4-0.8-0.7-1.3-0.7l-5.3-0.5c-0.5,0-1.1,0.1-1.5,0.5
			c-0.4,0.4-0.7,0.9-0.7,1.4l-0.9,12.3c-0.1,1.2,0.8,2.2,1.9,2.3l3.3,0.3c1.4,0.1,2.8-0.9,3-2.4L174.5,398.9z"/>
		<polygon class="st54" points="173.1,403.2 165.7,402.5 162.4,436.3 168.6,436.9 		"/>
		<path class="st54" d="M168.2,430.8l-4.2-0.4l-13,97.2c-0.2,1.2,0.2,2.3,1,3.2c0.8,0.9,2,1.5,3.3,1.6c0.8,0.1,1.6-0.2,2.3-0.6
			c0.6-0.5,1-1.2,1.1-1.9L168.2,430.8z"/>
	</g>
	<path class="st97" d="M259.7,418.2c0,0,14.4-0.6,15.1,1.1c0.7,1.8,5.1,33.2,3.5,34.4c-1.6,1.2-12.6,0.1-13.7-2.1
		C263.5,449.5,258.1,421.5,259.7,418.2z"/>
	<path class="st98" d="M168.2,385.4c-7.1-13.2,11-129.7,26.6-152.2c6.9-10,91.5,5.3,93.6,26.5c3.2,30.8-26.7,140-31.1,145.1
		C252.9,410,170.5,389.8,168.2,385.4z"/>
	<path class="st99" d="M184.3,321.2c-6.5-12.1-1.2-61.9,12.9-82.4c6.3-9.1,83.5,4.8,85.5,24.3c2.9,28.1-24.4,127.9-28.4,132.5
		C250.4,400.2,186.4,325.2,184.3,321.2z"/>
	<path class="st55" d="M290.3,543.9c-1.9-14.3-25.5-107.2-27.7-143.7c-24.6-15.1-52.2-22.1-86.8-28.8c0,0-10.5,35.4-10.1,58.3
		c0.5,22.2,19.9,107.7,19.9,115.4c0,12.6-14.2,34.5-15,41.3c-1.2,10.7-10.2,89-10.2,89h5.1c0,0,45.2-109.8,51.2-130.3
		c1.6-5.6,6.7-42.8,10.2-69c14.4,26,33.4,63.7,35.1,67.7c5,11.6,1.1,39.1,2.4,48.7c1.4,10.2,21.9,82.8,21.9,82.8h6.4
		C292.9,675.5,293.1,564.4,290.3,543.9z"/>
	<polygon class="st100" points="223.3,413.3 224.2,456.1 226.7,455.7 230.7,414.8 	"/>
	<path class="st100" d="M264.4,416.7c-0.9-6.2-1.5-11.8-1.8-16.5c-4.3-2.7-8.8-5.1-13.3-7.3l-76.1-11.7c-1.3,5.2-2.9,11.9-4.3,19.1
		C187.5,407.9,226.5,420.8,264.4,416.7z"/>
	<g>
		<path class="st56" d="M184.5,536.5c0.8,4.5,1.3,7.6,1.3,8.8c0,12.6-14.2,34.5-15,41.3c-1.2,10.7-10.2,89-10.2,89h5.1
			c0,0,37.7-91.5,48.8-123C203.5,548.8,193.4,543.3,184.5,536.5z"/>
		<path class="st56" d="M264.6,556.6c0.8,12.9-0.9,29.2,0,36.1c1.4,10.2,21.9,82.8,21.9,82.8h6.4c0,0,0.2-98.3-2.1-127
			C282.6,552.3,273.8,555,264.6,556.6z"/>
	</g>
	<g>
		<path class="st100" d="M177.1,586.5c0.8-6.8,15.3-28.7,15.3-41.3c0-7.7-10.2-87.2-10.7-109.5c-0.4-19.9,6.1-52.5,8.2-59.8
			c-2.8-0.6-11.3-4-14.1-4.5c0,0-10.5,35.4-10.1,58.3c0.5,22.2,17.8,107.7,17.8,115.4c0,12.6-14.6,34.5-15.3,41.3
			c-1.2,10.7-7.7,89-7.7,89h5.1c0,0,1.8-4.4,4.7-11.6C172.2,641.7,176.2,594.6,177.1,586.5z"/>
		<path class="st100" d="M271.2,592.6c-1.3-9.6,2.4-37.1-2.6-48.7c-1.7-4-26.8-48.1-41.2-74c-0.6,4.2-0.3,2.4-1,7
			c12.3,23.9,31.8,63.7,33.3,67c5,11.6,1.3,39.1,2.6,48.7c1.4,10.2,24.2,82.8,24.2,82.8h6.4c0,0,0-3,0-8
			C287,648.3,272.3,600.7,271.2,592.6z"/>
		<path class="st100" d="M180.6,404.2c-1,0.4-4,11-2.4,11.9c1.5,0.9,16.5,5.5,18.7,3.8c2.1-1.7,2.3-7.9,2.5-10.5
			C199.4,407.7,182.7,403.3,180.6,404.2z"/>
	</g>
	<polygon class="st62" points="237.7,411.4 224.9,410.3 223.7,418.1 236.4,419.2 	"/>
	<path class="st101" d="M171.3,383.9c1.5,12.4,88.6,20.5,92.1,13c3.5-7.5,38.1-111.5,20.5-139.3c-17.5-27.8-83.8-21.7-89.9-14.4
		c-14.9,17.5-2.4,61.4-6.6,81.8C181,356.4,170.4,376.6,171.3,383.9z"/>
	<path class="st102" d="M267.1,411.5c10.5-12.4,30.2-135,18.9-159.7c-11.3-24.7-101-26-81.4-13.8c21.8,13.6-25.8,152.9-23.8,159.3
		C182.7,403.6,263.9,415.2,267.1,411.5z"/>
	<path class="st98" d="M210.6,308.6c13.6-54.3,4.8-69.9-6-76.4c-6.9,1.1-5.4,2.4-0.1,5.7c21.8,13.6-28.4,152.9-26.5,159.3
		c1.1,3.5,28,8.4,50.6,11.7C174.3,392.4,199.9,351.3,210.6,308.6z"/>
	<polygon class="st103" points="279.2,317.9 220.5,304.5 215.9,326.4 276.3,335 	"/>
	<path class="st50" d="M233.5,239.1c0,0,7.3,16,20.3,18.1c13,2.1,13.5-11.5,13.5-11.5S239,236.7,233.5,239.1z"/>
	<polygon class="st102" points="252.5,256.7 259.1,248.2 254.4,244.7 246.9,246.5 	"/>
	<path class="st104" d="M160.9,388.1c0,0,13.6,4.6,13.6,6.5c0,1.9-4.6,33.3-6.5,33.8c-1.9,0.5-14.5-4.9-14.7-7.4
		C153,418.7,158.2,390.6,160.9,388.1z"/>
	<path class="st97" d="M163.4,424c-0.3-2.3,4.2-26.7,7-32.1c-4-1.9-9.5-3.7-9.5-3.7c-2.7,2.5-7.9,30.5-7.6,33
		c0.3,2.5,12.8,7.9,14.7,7.4c0.1,0,0.3-0.2,0.4-0.6C165.8,426.5,163.5,425,163.4,424z"/>
	<path class="st104" d="M164.6,398c0.3-1.3-0.1-2.6-0.9-2.8c-0.9-0.2-1.8,0.7-2.2,2c-0.3,1.3,0.1,2.6,0.9,2.8
		C163.3,400.2,164.3,399.3,164.6,398z"/>
	<path class="st104" d="M181.7,403c-0.9,0.4-3.5,10.4-2.2,11.2c1.4,0.8,14.7,5.2,16.6,3.5c1.9-1.6,2.1-7.4,2.2-9.9
		C198.4,406.3,183.6,402.2,181.7,403z"/>
	<path class="st97" d="M181.5,412.2c-1-0.6,0.2-6.3,1.2-9.3c-0.5,0-0.8,0-1,0.1c-0.9,0.4-3.5,10.4-2.2,11.2
		c1.4,0.8,14.7,5.2,16.6,3.5c0.4-0.4,0.8-1,1-1.7C193.6,416.5,182.7,412.9,181.5,412.2z"/>
	<path class="st97" d="M198,407.4c0,0-0.3,3.6-2,4.1c-1.7,0.5-15.2-4.2-15.2-4.2l-0.3,1.4c0,0,15.6,5.9,16.7,4.2
		C198.3,411.2,198,407.4,198,407.4z"/>
	<path class="st105" d="M190.4,408.4c0.2-0.6-0.3-1.3-1-1.6c-0.8-0.3-1.6,0-1.8,0.6c-0.2,0.6,0.3,1.3,1,1.6
		C189.4,409.2,190.2,409,190.4,408.4z"/>
	<path class="st98" d="M180.7,310.9c0,0,5.9,28,19.9,12.5l-16.4,76.4c0,0-18-8.8-17.2-19.4C167.8,369.7,180.7,310.9,180.7,310.9z"/>
	<path class="st90" d="M230.4,237.4l14.1-33.9l26.6,8l-6.2,36.7C264.9,248.2,233.7,240.6,230.4,237.4z"/>
	<polygon class="st93" points="237.9,253 255.4,245.3 232.7,229.2 227,230.3 	"/>
	<polygon class="st93" points="266.7,256.3 253.3,245.3 267.8,235.8 271.3,241.2 	"/>
	<path class="st106" d="M284.2,678.4h31.3c0,0-22.6-13.8-26.6-12c-4,1.8-4.7,12.7-4.7,12.7V678.4z"/>
	<path class="st106" d="M158,678.4h21.5c0,0-7.5-11.4-14.1-11.5c-4.4,0-7.4,12.2-7.4,12.2V678.4z"/>
	<path class="st89" d="M386.1,344.3c-6-3.7-20.7,4.5-24.1,7.3c-3.5,2.9-50.5,49.8-50.5,49.8l3,4.8c0,0,59.9-29.4,67.7-37
		C389.5,362.1,389.5,346.5,386.1,344.3z"/>
	<path class="st91" d="M449.7,341.4c-17.3-3.7-57,10.1-65,16.8c-8,6.7-26.5-13.3-10.5-27.2c16.1-13.9,62.9-49.3,113.8-29.5
		C497.7,305.2,472.7,346.4,449.7,341.4z"/>
	<polygon class="st107" points="364.9,347.1 376,362.4 378.4,357.2 369.3,345.4 	"/>
	<path class="st108" d="M458.6,548.1c-0.9-13.2-29.5-93.8-32.9-129.7c-22-14-27-25.4-60-31.7c0,0-14.9,24.1-17.8,45.5
		c-2.8,20.7,17.4,114.1,16.2,121.3c-1.9,11.7-19.2,24.5-20.9,30.8c-2.8,9.9-22,91.2-22,91.2h2c0,0,62.7-112.7,65.2-122
		c1.5-5.6,3.8-86,7.9-86.3c4.3-0.4,39.4,73.2,40.8,82.5c1.7,10.8-0.5,34.8,0.9,43.5c2.5,15.5,38.6,82.4,38.6,82.4h2.4
		C478.8,675.5,459.9,566.7,458.6,548.1z"/>
	<polygon class="st109" points="428.7,437.7 412.9,424.1 425.8,414.2 	"/>
	<path class="st109" d="M397.5,455.7l8.5-28.8c0,0,7-1.9,6.9-1.6c-0.1,0.3-13.5,30.9-13.5,30.9L397.5,455.7z"/>
	<path class="st109" d="M419.3,423c0,0-13.3,22.1-16.1,23.1c0,0-44-17.9-47-35.2c-3-17.3,12.4-10.6,12.4-10.6L419.3,423z"/>
	<g>
		<path class="st110" d="M363.6,547.1c0.4,3.2,0.6,5.4,0.5,6.3c-1.9,11.7-19.2,24.5-20.9,30.8c-2.8,9.9-22,91.2-22,91.2h2
			c0,0,53.9-96.8,63.7-118.4C378.6,554.9,370.9,551.6,363.6,547.1z"/>
		<path class="st110" d="M457.8,542.9c-6.3,4.6-13.1,8.4-20.3,11.2c0.7,11.9-0.8,31.4,0.4,39c2.5,15.5,38.6,82.4,38.6,82.4h2.4
			c0,0-18.9-108.7-20.1-127.4C458.6,546.9,458.2,545.1,457.8,542.9z"/>
	</g>
	<g>
		<path class="st109" d="M351,584.3c1.8-6.3,19.1-19.1,20.9-30.8c1.2-7.2-19.1-100.6-16.2-121.3c2.5-18.2,13.7-38.4,16.9-44
			c-2.2-0.5-4.5-1-7-1.5c0,0-14.9,24.1-17.8,45.5c-2.8,20.7,17.4,114.1,16.2,121.3c-1.9,11.7-19.2,24.5-20.9,30.8
			c-2.8,9.9-22,91.2-22,91.2h2c0,0,4.2-7.5,10.4-18.7C339.3,632.1,349.1,591.2,351,584.3z"/>
		<path class="st109" d="M445.8,593.1c-1.4-8.7,0.8-32.7-0.9-43.5c-1.4-9.2-38.8-83.6-43.1-83.3c-0.8,0.1-5.3-2.9-6,1.1
			c11.1,16.4,40.1,74.8,41.2,82.2c1.7,10.8-0.5,34.8,0.9,43.5c2.5,15.5,38.6,82.4,38.6,82.4h2.4c0,0-1-6.1-2.7-15.5
			C465.3,639.2,447.5,603.8,445.8,593.1z"/>
	</g>
	<path class="st111" d="M361.1,325.2c-8.2-1.9-20.7,11.8-23.1,15.8c-2.5,4.1-30,63.1-30,63.1l5.1,3.2c0,0,48.7-45.3,53.9-55.3
		C372,342.5,365.8,326.3,361.1,325.2z"/>
	<path class="st95" d="M361.1,325.2c-8.2-1.9-20.7,11.8-23.1,15.8c-0.8,1.3-4.1,8.1-8.3,16.9c5.6-4.2,10.2-5.9,12.5-4
		c4.6,3.8-1.9,20.2-14.5,36.8c-5.1,6.7-10.3,12.3-15.1,16.4l0.4,0.3c0,0,48.7-45.3,53.9-55.3C372,342.5,365.8,326.3,361.1,325.2z"/>
	<path class="st106" d="M472.2,678.5h22.2c0,0-16-11.5-18.8-10c-2.8,1.5-3.3,10.6-3.3,10.6V678.5z"/>
	<path class="st106" d="M316.6,678.5h22.2c0,0-11.9-10.6-14.7-9.1c-2.8,1.5-7.5,9.7-7.5,9.7V678.5z"/>
	<path class="st112" d="M360.8,396.4c-0.1-13.9,41.1-114.2,87.3-116.5c13.2-0.7,52.4,11.2,45.6,34.1c-6.5,21.8-45.3,52.6-52.4,66.2
		c-6.2,11.9-15.4,30.1-9.9,57.1c-3.5-4.7-11.3-10.9-14.7-12.9c-1-0.1-10.1,17.8-11.2,17.6C386.7,439.2,360.9,407.9,360.8,396.4z"/>
	<path class="st113" d="M461.6,287.1c3.1-0.7,7.9-1,13.3-0.7c-9.8-4.5-20.3-3.5-26.2-3.2c-46.2,2.3-94.1,103.5-94,117.4
		c0.1,8.6,17.6,24.5,33.7,33.1C382.9,424.2,415.7,298.1,461.6,287.1z"/>
	<path class="st112" d="M431.5,326.7c-18.1-2.9-56.2,13.1-63.3,20.2c-7.1,7.1-28.9-12-14.7-26.7c14.2-14.7,56.2-52.7,110.7-35.5
		C474.6,288,455.5,330.5,431.5,326.7z"/>
	<path class="st114" d="M455.3,346.5c0,0,3-44.9-7.3-60.3c0,0,10.7-8.7,26.3,2c15.6,10.7,14.6,15.2,14.6,15.2
		S485.4,339.2,455.3,346.5z"/>
	<path class="st111" d="M460.1,341.3c4.2-27-8.5-49.6-3.1-54.3c5.4-4.7,28.2,16.6,28.2,16.6S477.7,334.4,460.1,341.3z"/>
	<g>
		<path class="st113" d="M360.4,319.4c10.3-10.7,35.1-33.4,68.7-38.7c-37.1,3-64.6,28.2-75.6,39.5c-14.1,14.6,7.3,33.5,14.5,26.9
			C359.5,344.1,349.6,330.5,360.4,319.4z"/>
	</g>
	<path class="st113" d="M430.8,324.4c-18.1-6.9-57.3,8.4-64.8,15.5c-3.9,3.7-12.1,0.2-16.9-6c2.1,10.2,15.7,20.1,20.6,15.2
		c7.1-7.1,43.7-25.2,61.8-22.4c2.4,0.4,4.8,0.3,7.1-0.2C436.2,326.1,433.6,325.5,430.8,324.4z"/>
	<path class="st111" d="M456.1,288.6l27.1-29.4l16.6,19.6l-16.5,29.8C483.3,308.6,466.4,308.2,456.1,288.6z"/>
	<path class="st100" d="M215.2,468.3c6,1.2,25.3,3.3,30.9,1.1c0,0-10.5,8.4-16.6,8.6C223.4,478.1,215.2,468.3,215.2,468.3z"/>
	<path class="st115" d="M245.8,275c15.5,4.1,25.5-19.9,29.1-33.5c-1.6-0.9-3.3-1.7-5.1-2.4l-2.1-3.3l-0.9,0.6l2-11.7
		c-7.1-5.9-17.7-13-25.6-18.1l-9.7,23.2l-0.8-0.6l-5.7,1.1l0.1,0.3c-3.6-0.2-7-0.2-10.1-0.1c-3.7-0.3-7.1-0.4-10.1-0.4
		C218.7,244,232.2,271.4,245.8,275z"/>
	<path class="st50" d="M199.6,241.1c9.5-1,52.4,16.7,56.8,19c4.4,2.2,40.7,14.3,43.8,17.4c5.2,5.1,0.5,28.3-3.4,30.5
		c-3.9,2.2-57.5-3-58.9-3.2c-1.5-0.2-35.7-11-43-18.5C187.5,278.6,182.1,243,199.6,241.1z"/>
	<path class="st51" d="M288.3,272.1c-15.2,4.2-16.8,11.9-16.8,11.9l3.8,3.6l-6.5,0.2c-2.8,6.5-2.4,13.4-0.5,17.2
		c0,0.1,0.1,0.2,0.1,0.2l10.7-1.2l13.1-30.5L288.3,272.1z"/>
	<path class="st51" d="M243.4,294c-31.2-7.4-53.8-25-50.4-39.4c1.3-5.6,6.5-9.9,14.1-12.6c-3.2-0.8-5.9-1.1-7.5-1
		c-17.5,1.9-14.8,41-7.5,48.6c7.3,7.6,44.2,14.8,45.7,15c1.5,0.2,55,5.4,58.9,3.2c2.5-1.4,5.4-11.7,5.6-20.1
		C293.2,297.2,269.4,300.1,243.4,294z"/>
	<path class="st90" d="M276.1,245.4c-16.3-3.4-35.7-20.5-35.6-26c0.1-5.5,6.9-64.9,15.2-69.4c8.3-4.6,34.4,1.7,37.3,8.7
		C303.3,183.6,276.1,245.4,276.1,245.4z"/>
	<path class="st116" d="M285.2,192.8l6.5,2.1c0,0-3.7,7.4-6.3,5.9C282.9,199.2,285.2,192.8,285.2,192.8z"/>
	<path class="st117" d="M249.1,215.5c3-12.7,11.5-71.9,1.2-68.9c-10.3,3-11.2,46.1-11.2,46.1l3.6,17.6L249.1,215.5z"/>
	<path class="st96" d="M244.6,195.7c0-17.1,3.6-31,8.1-31c0.9,0,1.8,0.6,2.6,1.6c0.4-11.9-0.7-20.8-4.9-19.6
		c-10.3,3-14.7,43.7-14.7,43.7l7.1,20l3.2,2.6C245.1,208,244.6,202.1,244.6,195.7z"/>
	<path class="st90" d="M247.3,198.1c-3-10-11-13-15.4-10.6c-10.1,5.6,3,27,8,27.5C245,215.5,249.6,205.8,247.3,198.1z"/>
	<path class="st89" d="M244.6,200.2c-1.9-6.3-7-8.3-9.8-6.7c-6.4,3.6,1.9,17.1,5.1,17.4C243.1,211.2,246.1,205.1,244.6,200.2z"/>
	<path class="st90" d="M245.6,206.7c-1.2-4-4.5-5.3-6.3-4.3c-4.1,2.3,1.2,11,3.3,11.2C244.7,213.8,246.5,209.9,245.6,206.7z"/>
	<path class="st93" d="M292,272c0,0-11.5,3.3-18.1,11.6l6.2,5.1l-9.8,1.2c-0.2,0.6-0.4,1.2-0.6,1.8c-3.3,14.3,10.3,19.7,10.3,19.7
		l18.3-3l4.5-29.5L292,272z"/>
	<path class="st94" d="M292,272c0,0-1.4,0.4-3.4,1.3c3,2.8,4.9,6.7,4.9,11c0,8.6-7.5,15.6-16.8,15.6c-2.6,0-5-0.5-7.2-1.5
		c1.4,9.3,10.6,13,10.6,13l18.3-3l4.5-29.5L292,272z"/>
	<path class="st90" d="M283.7,298c1.5,10.5,22.4,15,28.2,14.4c5.8-0.6,75.4-15.4,75.4-15.4l-0.9-6.5c0,0-74.4-15.9-88.4-14.3
		C284,277.7,282.8,292,283.7,298z"/>
	<path class="st95" d="M346.3,300.3c-29.8,2.4-54.6-2.6-55.3-11.2c-0.4-4.4,5.8-9,16-12.6c-4-0.4-7.1-0.5-9.1-0.3
		c-14,1.6-18.6,16.1-17.7,22.1c1.5,10.5,25.8,14.7,31.6,14.1c5.8-0.6,75.4-15.4,75.4-15.4l-0.7-5.2
		C376.9,295.8,362.5,299,346.3,300.3z"/>
	<g>
		<path class="st118" d="M228.4,319.7l-0.7,4l-3.6-0.6l2.2-12.8l7.2,1.2c0.9,0.1,1.3,0.9,1.2,1.8l-1,5.6c-0.2,0.9-0.9,1.5-1.7,1.4
			L228.4,319.7z M229,316.4l1.4,0.2l0.4-2.4l-1.4-0.2L229,316.4z"/>
		<path class="st118" d="M235.4,325c-0.9-0.1-1.3-0.9-1.2-1.8l1.7-9.7c0.2-0.9,0.9-1.5,1.7-1.3l5.8,1c0.9,0.1,1.3,0.9,1.2,1.8
			l-1.7,9.7c-0.2,0.9-0.9,1.5-1.7,1.3L235.4,325z M239.2,315.7l-1.1,6.4l1.4,0.2l1.1-6.4L239.2,315.7z"/>
		<path class="st118" d="M246.1,313.6l3.6,0.6l-1.7,9.6l3.6,0.6l-0.6,3.2l-7.2-1.2L246.1,313.6z"/>
		<path class="st118" d="M251.9,327.8l2.2-12.8l3.6,0.6l-2.2,12.8L251.9,327.8z"/>
		<path class="st118" d="M266.8,317.1l-0.3,1.6l-0.8,1.5l-3.5-0.6l-1.1,6.4l4.1,0.7l-0.6,3.2l-6.3-1.1c-0.9-0.1-1.3-0.9-1.2-1.8
			l1.7-9.7c0.2-0.9,0.9-1.5,1.7-1.3L266.8,317.1z"/>
		<path class="st118" d="M265.5,330.1l2.2-12.8l7.7,1.3l-0.3,1.6l-0.9,1.5l-3.5-0.6l-0.2,1.4l3.5,0.6l-0.6,3.2l-3.5-0.6l-0.3,1.8
			l4.1,0.7l-0.6,3.2L265.5,330.1z"/>
	</g>
	<path class="st113" d="M348,328.2l3.2-5.5c0,0,10.2,15,17.7,18.2l-6.1,5.3L348,328.2z"/>
	<path class="st119" d="M344.1,332.5l4.9-9.5c8,11.4,13.3,19.5,23.3,25.9l-6.3,7.1C365.9,356,350.1,347.1,344.1,332.5z"/>
	<path class="st120" d="M363.3,350c-7.7,0-14-8.5-14-18.9c0-2.2,0.3-4.4,0.8-6.3c-0.4-0.6-0.8-1.2-1.3-1.8l-4.9,9.5
		c6.1,14.6,21.8,23.5,21.8,23.5l6.3-7.1c-0.7-0.4-1.3-0.9-1.9-1.3C368.2,349.1,365.8,350,363.3,350z"/>
	<polygon class="st97" points="305.1,405.2 307.5,401.6 315.5,408.7 313.7,410.4 	"/>
	<g>
		<path class="st55" d="M207,263.4l10.4-15.6c0,0,15.9,5.8,17.4,14.9C234.8,262.8,226.1,272.3,207,263.4z"/>
		<path class="st63" d="M209.5,262.2l8.7-13.2c0,0,13.6,4.9,14.8,12.7C233.1,261.7,225.6,269.7,209.5,262.2z"/>
		<path class="st64" d="M219.2,261l3.9-6.5c0,0,6.8,2.4,7.3,6.3C230.4,260.8,226.8,264.6,219.2,261z"/>
		<polygon class="st64" points="211.4,261.5 215.1,263 222.5,251.9 218.5,250.9 		"/>
	</g>
	<path class="st115" d="M294.9,166l-54.3-22.2c-4.4,1.2-7.9,3.2-9.7,6.1c-1.9,3-3.4,5.9-4.5,8.8c18.9,1.5,55.8,18.5,68.5,22.7
		C295.4,175.9,295.5,170.6,294.9,166z"/>
	<g>
		<path class="st67" d="M310.8,128.3c-22.3-16.3-126,11.8-72.3,19.7l58.2,3.8C310.1,148.6,321.9,136.4,310.8,128.3z"/>
		<path class="st121" d="M306.5,142.7c4.4-2.3,5.9-6.1,3.2-8.5c-2.7-2.4-8.5-2.4-12.9-0.1c-4.4,2.3-5.9,6.1-3.2,8.5
			C296.3,145,302.1,145,306.5,142.7z"/>
		<path class="st68" d="M267.6,148c-2.1-7.8,8.5-17.8,23.5-22.2c2.7-0.8,5.3-1.3,7.8-1.7c-34.1-5.4-107.4,17-60.5,23.9l30,2
			C268.1,149.3,267.8,148.7,267.6,148z"/>
		<path class="st74" d="M308.6,129.5c8.1,6,3.9,14.1-4.2,19.3c9.5-5,15.2-14.1,6.4-20.6c-15.2-11.2-68.6-1.5-83.6,8.2
			C244.6,127.2,294.1,118.9,308.6,129.5z"/>
		<path class="st55" d="M295.8,163.4c-31.3-3.6-41.3-9.3-66.4-13l2.1-5.7c0,0,38.7-9.1,70.9,4.3L295.8,163.4z"/>
		<path class="st69" d="M270.5,143.1c0.5-0.4,1-0.8,1.5-1.2c-22.2-1.9-40.9,2.3-40.9,2.3l-1.7,6.1c12.4,1.8,21.1,4.2,30.5,6.5
			C262.2,152,265.7,147.2,270.5,143.1z"/>
		<path class="st72" d="M246.8,152.9c0,0,37.5,17.8,56.5,20.6c8.5,1.2-7.3-12.7-7.3-12.7C292,161.4,273.7,156.3,246.8,152.9z"/>
		<g>
			<path class="st70" d="M296.1,161.9c4.1,3.8,7.5,7.7,9.6,10.9c1.1-2.6-9.7-12.1-9.7-12.1c-0.3,0-0.7,0.1-1.1,0
				C295.3,161.2,295.7,161.5,296.1,161.9z"/>
			<path class="st70" d="M279.2,158.2c-8.4-1.6-19.4-3.6-32.4-5.3c0,0,23.4,11.1,42.5,17.1C284.8,165.8,281.2,161.6,279.2,158.2z"/>
		</g>
		<path class="st70" d="M303.6,168.6c1.6,2.3,1.8,4-1.4,3.5c-15.3-2.2-42.8-14.3-52.8-18.8c-0.9-0.1-1.8-0.2-2.7-0.4
			c0,0,37.5,17.8,56.5,20.6C307.1,174,306,171.5,303.6,168.6z"/>
		<path class="st68" d="M231.8,146.5c0,0,38-8.5,69.9,4.1l0.8-1.7c-32.1-13.4-71.8-4.9-71.8-4.9l-1.2,6.3c0.4,0.1,0.8,0.1,1.2,0.2
			L231.8,146.5z"/>
		<path class="st71" d="M306.4,142.2c3.9-2,5.1-5.4,2.8-7.4c-2.4-2.1-7.4-2.1-11.3-0.1c-3.9,2-5.1,5.4-2.8,7.4
			C297.5,144.2,302.5,144.3,306.4,142.2z"/>
		<path class="st122" d="M299.6,135.8c3.9,0.8,6.7,2.8,7,5c0.1,0.5,0,1-0.1,1.4c3.8-2,5-5.3,2.7-7.4c-2.4-2.1-7.4-2.1-11.3-0.1
			c-0.5,0.3-0.9,0.5-1.4,0.8C297.6,135.5,298.6,135.6,299.6,135.8z"/>
		<path class="st55" d="M246.7,152.7c0,0.9,0.7,1.7,1.7,1.7c0.9,0,1.7-0.7,1.7-1.7c0-0.9-0.7-1.7-1.7-1.7
			C247.4,151.1,246.7,151.8,246.7,152.7z"/>
	</g>
	<g>
		<g>
			<path class="st123" d="M466.1,338.2c-1.9-0.6-3.2-2.3-2.9-3.3c0.1-0.3,0.5-1.1,2.2-0.8c1.9,0.4,2.9,0.5,3,0.3
				c0,0,0.1-0.2-0.8-1.4c-0.5-0.6-0.6-1.1-0.4-1.6c0.5-1,2.8-1,3.3-0.9l0,0.6c-1-0.1-2.5,0.1-2.7,0.6c-0.1,0.3,0.1,0.6,0.3,0.9
				c0.9,1.1,1.1,1.7,0.9,2.1c-0.3,0.6-1.4,0.5-3.6,0c-0.4-0.1-1.3-0.2-1.5,0.3c-0.2,0.6,0.8,2,2.5,2.6L466.1,338.2z"/>
		</g>
		<g>
			<path class="st123" d="M463.3,333l-0.4-0.5c0.4-0.4,1.4-1.5,1.3-2.2c-0.1-0.3-0.3-0.5-0.7-0.6c-1-0.4-1.5-0.8-1.5-1.3
				c-0.1-0.7,0.7-1.3,2.1-2.2c0.6-0.4,0.9-0.9,0.6-1.3c-0.4-0.7-1.5-1.1-2.6-0.6l-0.2-0.6c1.4-0.6,2.9,0,3.4,0.9
				c0.4,0.8,0.1,1.6-0.8,2.1c-0.6,0.4-1.9,1.2-1.9,1.6c0,0.1,0.2,0.4,1.2,0.8c0.6,0.2,0.9,0.6,1,1.1
				C465,331.4,463.5,332.8,463.3,333z"/>
		</g>
		<g>
			<path class="st123" d="M466.6,329.5c-0.8,0-1.7-0.4-1.9-0.4l0.2-0.6c0.7,0.3,1.8,0.5,2.2,0.2c0.2-0.2,0.1-0.5,0.1-0.7
				c-0.3-1.1-0.2-1.6,0.1-1.9c0.5-0.4,1.3,0,2.7,0.9c0.3,0.2,0.9,0.5,1.2,0.1c0.3-0.5,0.1-1.7-0.9-2.5l0.4-0.5
				c1.2,1,1.6,2.6,1.1,3.3c-0.1,0.2-0.7,0.8-2,0c-1.2-0.7-1.9-1.1-2.1-1c0,0-0.2,0.1,0.1,1.2c0.2,0.6,0.1,1.1-0.3,1.4
				C467.3,329.4,467,329.5,466.6,329.5z"/>
		</g>
	</g>
	<path class="st115" d="M462.3,334.9c15.4,0,26.1-13.1,32.1-27c-0.2-4.1-1.9-7.8-4.7-11l8.9-16.2c-2.9-6.9-10.2-13.9-17.3-19.5
		l-19.1,20.7c-5.6-1.5-10.7-2.1-14.1-2c-1.7,0.1-3.4,0.3-5.1,0.7c-4.8-0.4-9.5-0.3-14,0c0,0,0,0,0,0c-0.1,0-0.2,0-0.4,0
		C439,298.1,445.2,334.9,462.3,334.9z"/>
	<path class="st123" d="M540.7,236.5c0,0,7.6-3.5,6.4-13.8c-1.3-10.7-11-5.1-11-5.1s6.2-4.2-0.8-14.4c-5.7-8.4-12.5-4-15.2-1.6
		c1.6-1.9,3.4-6-5.2-10.5c-12.3-6.3-15.6,3.2-15.6,3.2s-0.8-10-9.9-8c-9.2,2-1.8,12-1.8,12s-9.7-7.9-15.1-5
		c-5.5,2.9,3.2,12.3,3.2,12.3s-5.3-4.5-11.6,2.8c-6.2,7.3,6.3,11.1,6.3,11.1s-8.1-2.2-12.8,4.1c-4.7,6.2,9.4,13.9,9.4,13.9
		s-5.9-2.3-9.3,5c-3.3,7.2,3.2,9.7,3.2,9.7c-3.8,6.5,4.7,16.4,17.5,17.5l45.1-21.1c0,0,14.1,1.1,19.5-5.8
		C548.3,236,540.7,236.5,540.7,236.5z"/>
	<path class="st124" d="M498.9,221.9c0-13.3,4.6-25,11.8-32.4c-8.9-2.4-11.4,4.9-11.4,4.9s-0.8-10-9.9-8c-9.2,2-1.8,12-1.8,12
		s-9.7-7.9-15.1-5c-5.5,2.9,3.2,12.3,3.2,12.3s-5.3-4.5-11.6,2.8c-6.2,7.3,6.3,11.1,6.3,11.1s-8.1-2.2-12.8,4.1
		c-4.7,6.2,9.4,13.9,9.4,13.9s-5.9-2.3-9.3,5c-3.3,7.2,3.2,9.7,3.2,9.7c-3.8,6.5,4.7,16.4,17.5,17.5l32.7-15.3
		C503.7,247.2,498.9,235.3,498.9,221.9z"/>
	<path class="st111" d="M505.5,304.2c-18.5-9-34.9-21.5-29-42.7c5.9-21.2,12.8-53.1,24.1-55.2c19.4-3.6,37.1,7,38,23.4
		C539.6,246.1,524.2,289.4,505.5,304.2z"/>
	<path class="st125" d="M516.7,249.7c-1.5,3.1-5,5.4-7.3,3.3c-2.3-2.1,1.5-6.8,1.5-6.8L516.7,249.7z"/>
	<path class="st125" d="M531,256.6c-1.1,3.2-4.4,5.9-6.9,4c-2.5-1.8,0.8-7,0.8-7L531,256.6z"/>
	<path class="st123" d="M524.1,279.2c0,0-8.2,30.5-15.1,29.7c-6.9-0.8-44.3-14.8-33.9-52.7c10.4-37.9,17.8-48.8,17.8-48.8
		s12.6,9,4.3,28.9c-8.2,19.9,7.8,36.2,13.8,39.6C518.1,279.8,524.1,279.2,524.1,279.2z"/>
	<path class="st124" d="M485.4,263.8c6.5-15.8,4.8-41.1,12.4-50c-2.1-4.3-6.5-7.4-6.5-7.4s-7.2,11-17.6,48.8
		c-10.4,37.9,28.3,53,35.2,53.7c0.4,0,0.8,0,1.2-0.2C496.2,307.5,474.9,289.2,485.4,263.8z"/>
	<path class="st123" d="M505.5,245c3.8,3.9,29.9,17.2,33.5,10.9c1.4-2.5,0.7-4.5-1.1-5c-1.8-0.5-19-3.5-27.5-12.9
		C507.8,235.1,502.5,241.8,505.5,245z"/>
	<path class="st125" d="M497.3,282.5c-2-0.3,5-7,7.7-6.4c2.8,0.6,9,6.7,8.5,8.1c-0.4,1.5-4.1,4.7-5.3,4.4
		C507,288.3,501.2,283.2,497.3,282.5z"/>
	<path class="st111" d="M509.1,272.5c-0.4,1.6,5,12.2,9.2,5.3c4.2-6.9,1.1-23.9,1.1-23.9L509.1,272.5z"/>
	<path class="st126" d="M520,254.9l-0.3,0.6c0.7,5.2,1.6,15.8-1.5,20.9c-3.1,5-6.8,0.7-8.4-2.6c0.1,2.3,5.2,11.6,9.2,5
		C523.2,271.9,520,254.9,520,254.9z"/>
	<path class="st124" d="M492.3,214.6c5.2,0.5,10.1-1.6,10.3-5.5c0.2-3.8-5.9-6.7-5.9-6.7S477.1,213.2,492.3,214.6z"/>
	<path class="st127" d="M498.7,282.1c-1.7-0.3,4.3-6,6.7-5.5c2.4,0.5,7.7,5.7,7.3,7c-0.4,1.3-3.5,4.1-4.6,3.7
		C507,287,502,282.7,498.7,282.1z"/>
	<path class="st125" d="M508.5,288.1c0.7-0.9,0.7-2.8,1.5-3.5c0.8-0.7,2.9-0.9,2.9-0.9C512.1,285.2,510.6,286.7,508.5,288.1z"/>
	<path class="st125" d="M498.5,286.2c2.2,0.4,5.7,2,6.8,3.6C501.8,291.1,498.5,286.2,498.5,286.2z"/>
	<path class="st111" d="M485.8,245.4c-2.6-10.8-12.3-8.1-14-3.4c-1.6,4.7,4.9,18.6,9.5,17.8C486.8,258.7,487.6,252.8,485.8,245.4z"
		/>
	<path class="st128" d="M483.2,246.7c-1.6-6.6-7.5-4.9-8.5-2.1c-1,2.8,3,11.3,5.8,10.8C483.8,254.8,484.3,251.2,483.2,246.7z"/>
	<path class="st111" d="M483.1,251.9c-1.2-4.7-5.4-3.5-6.1-1.5c-0.7,2,2.2,8.2,4.2,7.8C483.5,257.8,483.9,255.2,483.1,251.9z"/>
	<path class="st109" d="M385.9,460.7c6.1,0.4,20.6,4,24.3,0.8c0,0-9.3,7.7-14.8,6.7C390,467.2,385.9,460.7,385.9,460.7z"/>
	<path class="st123" d="M502.5,208.5c0-2.4-1.4-4.3-3-4.3c-1.7,0-3,1.9-3,4.3c0,2.4,1.4,4.3,3,4.3
		C501.2,212.8,502.5,210.9,502.5,208.5z"/>
	<path class="st123" d="M498.3,217.6c0-4.1-2.4-7.5-5.3-7.5c-2.9,0-5.3,3.4-5.3,7.5c0,4.1,2.4,7.5,5.3,7.5
		C495.9,225.1,498.3,221.8,498.3,217.6z"/>
	<path class="st123" d="M492,231.6c0-3-1.7-5.5-3.8-5.5c-2.1,0-3.8,2.4-3.8,5.5c0,3,1.7,5.5,3.8,5.5
		C490.3,237.1,492,234.6,492,231.6z"/>
	<path class="st90" d="M284.4,188.6c0,0,4.4,30.8,3.5,32.2c-0.9,1.3-11.9-5.5-11.9-5.5L284.4,188.6z"/>
	<path class="st89" d="M285.8,189.6l-1.1,3.3c1.2,8.6,3.5,26.2,2.8,27.2c-0.7,1-7.1-2.6-10.2-4.4l-0.3,0.9c0,0,11.5,7.2,12.4,5.9
		C290.4,221.2,285.8,189.6,285.8,189.6z"/>
	<path class="st117" d="M266.7,176.4c3.8,0.3,14.3,6.4,16.7,7.1c1.7,0.5,0.3,6.1-2.7,6.1c-3,0-16.1-6.5-16.5-7.6
		C263.7,180.9,264.2,176.2,266.7,176.4z"/>
	<path class="st117" d="M297.8,188.2c-0.6-1.1-6.7-3.7-8.7-3.1c-1.3,0.4-1.4,5.3-1.2,6.2c0.3,1,6.7,3.1,8.3,2.3
		C297.8,193,298.7,189.7,297.8,188.2z"/>
	<path class="st116" d="M271.5,188.5l6.5,2.1c0,0-3.7,7.4-6.3,5.9C269.1,195,271.5,188.5,271.5,188.5z"/>
	<path class="st89" d="M262.8,210.8l-1.3-1.6c-4.4,12.3,14.7,17.8,14.7,17.8l-0.6-0.7C270.9,224.5,260.8,219.6,262.8,210.8z"/>
	<g>
		<path class="st90" d="M376.7,294.7c2.8-0.1,8.8,3.6,9.9,5.1c1.2,1.5,9.7-3.9,9.1-6.1c-0.6-2.2-15.3-4.2-15.3-4.2
			C378.2,290.4,376.7,291.6,376.7,294.7z"/>
		<path class="st90" d="M392.8,295.6c2.2,0.3,4.6,0.9,5.2,1.1c0.7,0.2,3.4,2.9,4.5,1.3c1-1.6-5.5-5.8-9.6-5.6L392.8,295.6z"/>
		<path class="st90" d="M390.3,297.7c1.9,1.1,3.8,2.6,4.3,3c0.6,0.4,2.3,4.2,3.6,2.9c1.3-1.3-3.4-7.9-7-9.2L390.3,297.7z"/>
		<path class="st90" d="M386,299c1.7,1.4,3.4,3.2,3.8,3.8c0.5,0.5,1.7,4.6,3.1,3.5c1.4-1.1-2.4-8.6-5.7-10.5L386,299z"/>
		<path class="st90" d="M389.2,292.6c2.7,0.2,4.8-2.5,5.6-2.8c0.7-0.3,4.7-0.3,4.9-2.1c0.2-1.8-12.9,0.8-19.3,2.2
			C380.4,289.9,386.5,292.4,389.2,292.6z"/>
	</g>
</g>
</svg>
